<?xml version='1.0' encoding='utf-8'?>
<svg width="225.70mm" height="337.80mm" viewBox="0.0 0.0 225.70 337.80" xmlns="http://www.w3.org/2000/svg" xmlns:dc="http://purl.org/dc/elements/1.1/" xmlns:cc="http://creativecommons.org/ns#" xmlns:rdf="http://www.w3.org/1999/02/22-rdf-syntax-ns#" xmlns:svg="http://www.w3.org/2000/svg" xmlns:xlink="http://www.w3.org/1999/xlink" xmlns:inkscape="http://www.inkscape.org/namespaces/inkscape">
<!--
BasedBox - Fully closed box on a base


This box is more of a building block than a finished item.
Use a vector graphics program (like Inkscape) to add holes or adjust the base
plate. The width of the "brim" can also be adjusted with the **edge_width**
 parameter in the **Finger Joints Settings**.
 
See ClosedBox for variant without a base.



Created with Boxes.py (https://festi.info/boxes.py)
Creation date: 2023-04-22 16:20:13
Command line (remove spaces between dashes): boxes BasedBox - -thickness=2
Url: http://www.festi.info/boxes.py/BasedBox?FingerJoint_angle=90.0&FingerJoint_style=rectangular&FingerJoint_surroundingspaces=2.0&FingerJoint_bottom_lip=0.0&FingerJoint_edge_width=1.0&FingerJoint_extra_length=0.0&FingerJoint_finger=2.0&FingerJoint_play=0.0&FingerJoint_space=2.0&FingerJoint_width=1.0&x=100&y=100&h=100&outside=0&outside=1&thickness=2&format=svg&tabs=0.0&qr_code=0&debug=0&labels=0&labels=1&reference=100&inner_corners=loop&burn=0.1&language=fr&render=1
Url short: http://www.festi.info/boxes.py/BasedBox?thickness=2
SettingsUrl: http://www.festi.info/boxes.py/BasedBox?FingerJoint_angle=90.0&FingerJoint_style=rectangular&FingerJoint_surroundingspaces=2.0&FingerJoint_bottom_lip=0.0&FingerJoint_edge_width=1.0&FingerJoint_extra_length=0.0&FingerJoint_finger=2.0&FingerJoint_play=0.0&FingerJoint_space=2.0&FingerJoint_width=1.0&x=100&y=100&h=100&outside=0&outside=1&thickness=2&format=svg&tabs=0.0&qr_code=0&debug=0&labels=0&labels=1&reference=100&inner_corners=loop&burn=0.1&language=fr
SettingsUrl short: http://www.festi.info/boxes.py/BasedBox?thickness=2
-->
<title>BasedBox</title>
<metadata>
<rdf:RDF><cc:Work>
<dc:title>Box - BasedBox</dc:title>
<dc:date>2023-04-22 16:20:13</dc:date>
<dc:source>http://www.festi.info/boxes.py/BasedBox?FingerJoint_angle=90.0&amp;FingerJoint_style=rectangular&amp;FingerJoint_surroundingspaces=2.0&amp;FingerJoint_bottom_lip=0.0&amp;FingerJoint_edge_width=1.0&amp;FingerJoint_extra_length=0.0&amp;FingerJoint_finger=2.0&amp;FingerJoint_play=0.0&amp;FingerJoint_space=2.0&amp;FingerJoint_width=1.0&amp;x=100&amp;y=100&amp;h=100&amp;outside=0&amp;outside=1&amp;thickness=2&amp;format=svg&amp;tabs=0.0&amp;qr_code=0&amp;debug=0&amp;labels=0&amp;labels=1&amp;reference=100&amp;inner_corners=loop&amp;burn=0.1&amp;language=fr&amp;render=1</dc:source>
<dc:source>http://www.festi.info/boxes.py/BasedBox?thickness=2</dc:source>
<dc:description>Fully closed box on a base

This box is more of a building block than a finished item.
Use a vector graphics program (like Inkscape) to add holes or adjust the base
plate. The width of the "brim" can also be adjusted with the **edge_width**
 parameter in the **Finger Joints Settings**.
 
See ClosedBox for variant without a base.


Created with Boxes.py (https://festi.info/boxes.py)
Command line: boxes BasedBox --FingerJoint_angle=90.0 --FingerJoint_style=rectangular --FingerJoint_surroundingspaces=2.0 --FingerJoint_bottom_lip=0.0 --FingerJoint_edge_width=1.0 --FingerJoint_extra_length=0.0 --FingerJoint_finger=2.0 --FingerJoint_play=0.0 --FingerJoint_space=2.0 --FingerJoint_width=1.0 --x=100 --y=100 --h=100 --outside=0 --outside=1 --thickness=2 --format=svg --tabs=0.0 --qr_code=0 --debug=0 --labels=0 --labels=1 --reference=100 --inner_corners=loop --burn=0.1
Command line short: boxes BasedBox --thickness=2
Url: http://www.festi.info/boxes.py/BasedBox?FingerJoint_angle=90.0&amp;FingerJoint_style=rectangular&amp;FingerJoint_surroundingspaces=2.0&amp;FingerJoint_bottom_lip=0.0&amp;FingerJoint_edge_width=1.0&amp;FingerJoint_extra_length=0.0&amp;FingerJoint_finger=2.0&amp;FingerJoint_play=0.0&amp;FingerJoint_space=2.0&amp;FingerJoint_width=1.0&amp;x=100&amp;y=100&amp;h=100&amp;outside=0&amp;outside=1&amp;thickness=2&amp;format=svg&amp;tabs=0.0&amp;qr_code=0&amp;debug=0&amp;labels=0&amp;labels=1&amp;reference=100&amp;inner_corners=loop&amp;burn=0.1&amp;language=fr&amp;render=1
Url short: http://www.festi.info/boxes.py/BasedBox?thickness=2
SettingsUrl: http://www.festi.info/boxes.py/BasedBox?FingerJoint_angle=90.0&amp;FingerJoint_style=rectangular&amp;FingerJoint_surroundingspaces=2.0&amp;FingerJoint_bottom_lip=0.0&amp;FingerJoint_edge_width=1.0&amp;FingerJoint_extra_length=0.0&amp;FingerJoint_finger=2.0&amp;FingerJoint_play=0.0&amp;FingerJoint_space=2.0&amp;FingerJoint_width=1.0&amp;x=100&amp;y=100&amp;h=100&amp;outside=0&amp;outside=1&amp;thickness=2&amp;format=svg&amp;tabs=0.0&amp;qr_code=0&amp;debug=0&amp;labels=0&amp;labels=1&amp;reference=100&amp;inner_corners=loop&amp;burn=0.1&amp;language=fr
SettingsUrl short: http://www.festi.info/boxes.py/BasedBox?thickness=2
</dc:description>
</cc:Work></rdf:RDF></metadata>
<g id="p-0" style="fill:none;stroke-linecap:round;stroke-linejoin:round;">
  <path d="M 10.400 327.800 H 110.400 V 317.800 H 10.400 V 327.800 Z" stroke="rgb(0,0,0)" stroke-width="0.20" />
  <text transform="matrix( 1.000 0.000 0.000 1.000 60.400 318.800 )" style="font-family: sans-serif ; font-weight: normal; font-style: normal; fill: rgb(255,0,0)" font-size="8px" text-anchor="middle" dominant-baseline="hanging">100mm, burn:0.10mm</text>
</g>
<g id="p-1" style="fill:none;stroke-linecap:round;stroke-linejoin:round;">
  <text transform="matrix( 1.000 0.000 0.000 1.000 60.400 264.600 )" style="font-family: sans-serif ; font-weight: normal; font-style: normal; fill: rgb(255,0,0)" font-size="4px" text-anchor="middle" dominant-baseline="hanging">Wall 1</text><path d="M 12.400 314.600 H 18.300 C 18.400 314.600 18.300 314.500 18.300 314.600 V 316.500 C 18.300 316.555 18.345 316.600 18.400 316.600 H 22.400 C 22.455 316.600 22.500 316.555 22.500 316.500 V 314.600 C 22.500 314.500 22.400 314.600 22.500 314.600 H 26.300 C 26.400 314.600 26.300 314.500 26.300 314.600 V 316.500 C 26.300 316.555 26.345 316.600 26.400 316.600 H 30.400 C 30.455 316.600 30.500 316.555 30.500 316.500 V 314.600 C 30.500 314.500 30.400 314.600 30.500 314.600 H 34.300 C 34.400 314.600 34.300 314.500 34.300 314.600 V 316.500 C 34.300 316.555 34.345 316.600 34.400 316.600 H 38.400 C 38.455 316.600 38.500 316.555 38.500 316.500 V 314.600 C 38.500 314.500 38.400 314.600 38.500 314.600 H 42.300 C 42.400 314.600 42.300 314.500 42.300 314.600 V 316.500 C 42.300 316.555 42.345 316.600 42.400 316.600 H 46.400 C 46.455 316.600 46.500 316.555 46.500 316.500 V 314.600 C 46.500 314.500 46.400 314.600 46.500 314.600 H 50.300 C 50.400 314.600 50.300 314.500 50.300 314.600 V 316.500 C 50.300 316.555 50.345 316.600 50.400 316.600 H 54.400 C 54.455 316.600 54.500 316.555 54.500 316.500 V 314.600 C 54.500 314.500 54.400 314.600 54.500 314.600 H 58.300 C 58.400 314.600 58.300 314.500 58.300 314.600 V 316.500 C 58.300 316.555 58.345 316.600 58.400 316.600 H 62.400 C 62.455 316.600 62.500 316.555 62.500 316.500 V 314.600 C 62.500 314.500 62.400 314.600 62.500 314.600 H 66.300 C 66.400 314.600 66.300 314.500 66.300 314.600 V 316.500 C 66.300 316.555 66.345 316.600 66.400 316.600 H 70.400 C 70.455 316.600 70.500 316.555 70.500 316.500 V 314.600 C 70.500 314.500 70.400 314.600 70.500 314.600 H 74.300 C 74.400 314.600 74.300 314.500 74.300 314.600 V 316.500 C 74.300 316.555 74.345 316.600 74.400 316.600 H 78.400 C 78.455 316.600 78.500 316.555 78.500 316.500 V 314.600 C 78.500 314.500 78.400 314.600 78.500 314.600 H 82.300 C 82.400 314.600 82.300 314.500 82.300 314.600 V 316.500 C 82.300 316.555 82.345 316.600 82.400 316.600 H 86.400 C 86.455 316.600 86.500 316.555 86.500 316.500 V 314.600 C 86.500 314.500 86.400 314.600 86.500 314.600 H 90.300 C 90.400 314.600 90.300 314.500 90.300 314.600 V 316.500 C 90.300 316.555 90.345 316.600 90.400 316.600 H 94.400 C 94.455 316.600 94.500 316.555 94.500 316.500 V 314.600 C 94.500 314.500 94.400 314.600 94.500 314.600 H 98.300 C 98.400 314.600 98.300 314.500 98.300 314.600 V 316.500 C 98.300 316.555 98.345 316.600 98.400 316.600 H 102.400 C 102.455 316.600 102.500 316.555 102.500 316.500 V 314.600 C 102.500 314.500 102.400 314.600 102.500 314.600 H 108.400 H 110.400 C 110.455 314.600 110.500 314.555 110.500 314.500 V 308.500 C 110.500 308.445 110.455 308.400 110.400 308.400 H 108.500 C 108.400 308.400 108.500 308.500 108.500 308.400 V 304.600 C 108.500 304.500 108.400 304.600 108.500 304.600 H 110.400 C 110.455 304.600 110.500 304.555 110.500 304.500 V 300.500 C 110.500 300.445 110.455 300.400 110.400 300.400 H 108.500 C 108.400 300.400 108.500 300.500 108.500 300.400 V 296.600 C 108.500 296.500 108.400 296.600 108.500 296.600 H 110.400 C 110.455 296.600 110.500 296.555 110.500 296.500 V 292.500 C 110.500 292.445 110.455 292.400 110.400 292.400 H 108.500 C 108.400 292.400 108.500 292.500 108.500 292.400 V 288.600 C 108.500 288.500 108.400 288.600 108.500 288.600 H 110.400 C 110.455 288.600 110.500 288.555 110.500 288.500 V 284.500 C 110.500 284.445 110.455 284.400 110.400 284.400 H 108.500 C 108.400 284.400 108.500 284.500 108.500 284.400 V 280.600 C 108.500 280.500 108.400 280.600 108.500 280.600 H 110.400 C 110.455 280.600 110.500 280.555 110.500 280.500 V 276.500 C 110.500 276.445 110.455 276.400 110.400 276.400 H 108.500 C 108.400 276.400 108.500 276.500 108.500 276.400 V 272.600 C 108.500 272.500 108.400 272.600 108.500 272.600 H 110.400 C 110.455 272.600 110.500 272.555 110.500 272.500 V 268.500 C 110.500 268.445 110.455 268.400 110.400 268.400 H 108.500 C 108.400 268.400 108.500 268.500 108.500 268.400 V 264.600 C 108.500 264.500 108.400 264.600 108.500 264.600 H 110.400 C 110.455 264.600 110.500 264.555 110.500 264.500 V 260.500 C 110.500 260.445 110.455 260.400 110.400 260.400 H 108.500 C 108.400 260.400 108.500 260.500 108.500 260.400 V 256.600 C 108.500 256.500 108.400 256.600 108.500 256.600 H 110.400 C 110.455 256.600 110.500 256.555 110.500 256.500 V 252.500 C 110.500 252.445 110.455 252.400 110.400 252.400 H 108.500 C 108.400 252.400 108.500 252.500 108.500 252.400 V 248.600 C 108.500 248.500 108.400 248.600 108.500 248.600 H 110.400 C 110.455 248.600 110.500 248.555 110.500 248.500 V 244.500 C 110.500 244.445 110.455 244.400 110.400 244.400 H 108.500 C 108.400 244.400 108.500 244.500 108.500 244.400 V 240.600 C 108.500 240.500 108.400 240.600 108.500 240.600 H 110.400 C 110.455 240.600 110.500 240.555 110.500 240.500 V 236.500 C 110.500 236.445 110.455 236.400 110.400 236.400 H 108.500 C 108.400 236.400 108.500 236.500 108.500 236.400 V 232.600 C 108.500 232.500 108.400 232.600 108.500 232.600 H 110.400 C 110.455 232.600 110.500 232.555 110.500 232.500 V 228.500 C 110.500 228.445 110.455 228.400 110.400 228.400 H 108.500 C 108.400 228.400 108.500 228.500 108.500 228.400 V 224.600 C 108.500 224.500 108.400 224.600 108.500 224.600 H 110.400 C 110.455 224.600 110.500 224.555 110.500 224.500 V 218.500 V 216.500 C 110.500 216.445 110.455 216.400 110.400 216.400 H 108.400 H 102.400 C 102.345 216.400 102.300 216.445 102.300 216.500 V 218.400 C 102.300 218.500 102.400 218.400 102.300 218.400 H 98.500 C 98.400 218.400 98.500 218.500 98.500 218.400 V 216.500 C 98.500 216.445 98.455 216.400 98.400 216.400 H 94.400 C 94.345 216.400 94.300 216.445 94.300 216.500 V 218.400 C 94.300 218.500 94.400 218.400 94.300 218.400 H 90.500 C 90.400 218.400 90.500 218.500 90.500 218.400 V 216.500 C 90.500 216.445 90.455 216.400 90.400 216.400 H 86.400 C 86.345 216.400 86.300 216.445 86.300 216.500 V 218.400 C 86.300 218.500 86.400 218.400 86.300 218.400 H 82.500 C 82.400 218.400 82.500 218.500 82.500 218.400 V 216.500 C 82.500 216.445 82.455 216.400 82.400 216.400 H 78.400 C 78.345 216.400 78.300 216.445 78.300 216.500 V 218.400 C 78.300 218.500 78.400 218.400 78.300 218.400 H 74.500 C 74.400 218.400 74.500 218.500 74.500 218.400 V 216.500 C 74.500 216.445 74.455 216.400 74.400 216.400 H 70.400 C 70.345 216.400 70.300 216.445 70.300 216.500 V 218.400 C 70.300 218.500 70.400 218.400 70.300 218.400 H 66.500 C 66.400 218.400 66.500 218.500 66.500 218.400 V 216.500 C 66.500 216.445 66.455 216.400 66.400 216.400 H 62.400 C 62.345 216.400 62.300 216.445 62.300 216.500 V 218.400 C 62.300 218.500 62.400 218.400 62.300 218.400 H 58.500 C 58.400 218.400 58.500 218.500 58.500 218.400 V 216.500 C 58.500 216.445 58.455 216.400 58.400 216.400 H 54.400 C 54.345 216.400 54.300 216.445 54.300 216.500 V 218.400 C 54.300 218.500 54.400 218.400 54.300 218.400 H 50.500 C 50.400 218.400 50.500 218.500 50.500 218.400 V 216.500 C 50.500 216.445 50.455 216.400 50.400 216.400 H 46.400 C 46.345 216.400 46.300 216.445 46.300 216.500 V 218.400 C 46.300 218.500 46.400 218.400 46.300 218.400 H 42.500 C 42.400 218.400 42.500 218.500 42.500 218.400 V 216.500 C 42.500 216.445 42.455 216.400 42.400 216.400 H 38.400 C 38.345 216.400 38.300 216.445 38.300 216.500 V 218.400 C 38.300 218.500 38.400 218.400 38.300 218.400 H 34.500 C 34.400 218.400 34.500 218.500 34.500 218.400 V 216.500 C 34.500 216.445 34.455 216.400 34.400 216.400 H 30.400 C 30.345 216.400 30.300 216.445 30.300 216.500 V 218.400 C 30.300 218.500 30.400 218.400 30.300 218.400 H 26.500 C 26.400 218.400 26.500 218.500 26.500 218.400 V 216.500 C 26.500 216.445 26.455 216.400 26.400 216.400 H 22.400 C 22.345 216.400 22.300 216.445 22.300 216.500 V 218.400 C 22.300 218.500 22.400 218.400 22.300 218.400 H 18.500 C 18.400 218.400 18.500 218.500 18.500 218.400 V 216.500 C 18.500 216.445 18.455 216.400 18.400 216.400 H 12.400 H 10.400 C 10.345 216.400 10.300 216.445 10.300 216.500 V 218.500 V 224.500 C 10.300 224.555 10.345 224.600 10.400 224.600 H 12.300 C 12.400 224.600 12.300 224.500 12.300 224.600 V 228.400 C 12.300 228.500 12.400 228.400 12.300 228.400 H 10.400 C 10.345 228.400 10.300 228.445 10.300 228.500 V 232.500 C 10.300 232.555 10.345 232.600 10.400 232.600 H 12.300 C 12.400 232.600 12.300 232.500 12.300 232.600 V 236.400 C 12.300 236.500 12.400 236.400 12.300 236.400 H 10.400 C 10.345 236.400 10.300 236.445 10.300 236.500 V 240.500 C 10.300 240.555 10.345 240.600 10.400 240.600 H 12.300 C 12.400 240.600 12.300 240.500 12.300 240.600 V 244.400 C 12.300 244.500 12.400 244.400 12.300 244.400 H 10.400 C 10.345 244.400 10.300 244.445 10.300 244.500 V 248.500 C 10.300 248.555 10.345 248.600 10.400 248.600 H 12.300 C 12.400 248.600 12.300 248.500 12.300 248.600 V 252.400 C 12.300 252.500 12.400 252.400 12.300 252.400 H 10.400 C 10.345 252.400 10.300 252.445 10.300 252.500 V 256.500 C 10.300 256.555 10.345 256.600 10.400 256.600 H 12.300 C 12.400 256.600 12.300 256.500 12.300 256.600 V 260.400 C 12.300 260.500 12.400 260.400 12.300 260.400 H 10.400 C 10.345 260.400 10.300 260.445 10.300 260.500 V 264.500 C 10.300 264.555 10.345 264.600 10.400 264.600 H 12.300 C 12.400 264.600 12.300 264.500 12.300 264.600 V 268.400 C 12.300 268.500 12.400 268.400 12.300 268.400 H 10.400 C 10.345 268.400 10.300 268.445 10.300 268.500 V 272.500 C 10.300 272.555 10.345 272.600 10.400 272.600 H 12.300 C 12.400 272.600 12.300 272.500 12.300 272.600 V 276.400 C 12.300 276.500 12.400 276.400 12.300 276.400 H 10.400 C 10.345 276.400 10.300 276.445 10.300 276.500 V 280.500 C 10.300 280.555 10.345 280.600 10.400 280.600 H 12.300 C 12.400 280.600 12.300 280.500 12.300 280.600 V 284.400 C 12.300 284.500 12.400 284.400 12.300 284.400 H 10.400 C 10.345 284.400 10.300 284.445 10.300 284.500 V 288.500 C 10.300 288.555 10.345 288.600 10.400 288.600 H 12.300 C 12.400 288.600 12.300 288.500 12.300 288.600 V 292.400 C 12.300 292.500 12.400 292.400 12.300 292.400 H 10.400 C 10.345 292.400 10.300 292.445 10.300 292.500 V 296.500 C 10.300 296.555 10.345 296.600 10.400 296.600 H 12.300 C 12.400 296.600 12.300 296.500 12.300 296.600 V 300.400 C 12.300 300.500 12.400 300.400 12.300 300.400 H 10.400 C 10.345 300.400 10.300 300.445 10.300 300.500 V 304.500 C 10.300 304.555 10.345 304.600 10.400 304.600 H 12.300 C 12.400 304.600 12.300 304.500 12.300 304.600 V 308.400 C 12.300 308.500 12.400 308.400 12.300 308.400 H 10.400 C 10.345 308.400 10.300 308.445 10.300 308.500 V 314.500 C 10.300 314.555 10.345 314.600 10.400 314.600 H 12.400" stroke="rgb(0,0,0)" stroke-width="0.20" />
</g>
<g id="p-2" style="fill:none;stroke-linecap:round;stroke-linejoin:round;">
  <text transform="matrix( 1.000 0.000 0.000 1.000 161.600 264.600 )" style="font-family: sans-serif ; font-weight: normal; font-style: normal; fill: rgb(255,0,0)" font-size="4px" text-anchor="middle" dominant-baseline="hanging">Wall 2</text><path d="M 113.600 314.600 H 119.500 C 119.600 314.600 119.500 314.500 119.500 314.600 V 316.500 C 119.500 316.555 119.545 316.600 119.600 316.600 H 123.600 C 123.655 316.600 123.700 316.555 123.700 316.500 V 314.600 C 123.700 314.500 123.600 314.600 123.700 314.600 H 127.500 C 127.600 314.600 127.500 314.500 127.500 314.600 V 316.500 C 127.500 316.555 127.545 316.600 127.600 316.600 H 131.600 C 131.655 316.600 131.700 316.555 131.700 316.500 V 314.600 C 131.700 314.500 131.600 314.600 131.700 314.600 H 135.500 C 135.600 314.600 135.500 314.500 135.500 314.600 V 316.500 C 135.500 316.555 135.545 316.600 135.600 316.600 H 139.600 C 139.655 316.600 139.700 316.555 139.700 316.500 V 314.600 C 139.700 314.500 139.600 314.600 139.700 314.600 H 143.500 C 143.600 314.600 143.500 314.500 143.500 314.600 V 316.500 C 143.500 316.555 143.545 316.600 143.600 316.600 H 147.600 C 147.655 316.600 147.700 316.555 147.700 316.500 V 314.600 C 147.700 314.500 147.600 314.600 147.700 314.600 H 151.500 C 151.600 314.600 151.500 314.500 151.500 314.600 V 316.500 C 151.500 316.555 151.545 316.600 151.600 316.600 H 155.600 C 155.655 316.600 155.700 316.555 155.700 316.500 V 314.600 C 155.700 314.500 155.600 314.600 155.700 314.600 H 159.500 C 159.600 314.600 159.500 314.500 159.500 314.600 V 316.500 C 159.500 316.555 159.545 316.600 159.600 316.600 H 163.600 C 163.655 316.600 163.700 316.555 163.700 316.500 V 314.600 C 163.700 314.500 163.600 314.600 163.700 314.600 H 167.500 C 167.600 314.600 167.500 314.500 167.500 314.600 V 316.500 C 167.500 316.555 167.545 316.600 167.600 316.600 H 171.600 C 171.655 316.600 171.700 316.555 171.700 316.500 V 314.600 C 171.700 314.500 171.600 314.600 171.700 314.600 H 175.500 C 175.600 314.600 175.500 314.500 175.500 314.600 V 316.500 C 175.500 316.555 175.545 316.600 175.600 316.600 H 179.600 C 179.655 316.600 179.700 316.555 179.700 316.500 V 314.600 C 179.700 314.500 179.600 314.600 179.700 314.600 H 183.500 C 183.600 314.600 183.500 314.500 183.500 314.600 V 316.500 C 183.500 316.555 183.545 316.600 183.600 316.600 H 187.600 C 187.655 316.600 187.700 316.555 187.700 316.500 V 314.600 C 187.700 314.500 187.600 314.600 187.700 314.600 H 191.500 C 191.600 314.600 191.500 314.500 191.500 314.600 V 316.500 C 191.500 316.555 191.545 316.600 191.600 316.600 H 195.600 C 195.655 316.600 195.700 316.555 195.700 316.500 V 314.600 C 195.700 314.500 195.600 314.600 195.700 314.600 H 199.500 C 199.600 314.600 199.500 314.500 199.500 314.600 V 316.500 C 199.500 316.555 199.545 316.600 199.600 316.600 H 203.600 C 203.655 316.600 203.700 316.555 203.700 316.500 V 314.600 C 203.700 314.500 203.600 314.600 203.700 314.600 H 209.600 C 209.655 314.600 209.700 314.555 209.700 314.500 V 308.600 C 209.700 308.500 209.600 308.600 209.700 308.600 H 211.600 C 211.655 308.600 211.700 308.555 211.700 308.500 V 304.500 C 211.700 304.445 211.655 304.400 211.600 304.400 H 209.700 C 209.600 304.400 209.700 304.500 209.700 304.400 V 300.600 C 209.700 300.500 209.600 300.600 209.700 300.600 H 211.600 C 211.655 300.600 211.700 300.555 211.700 300.500 V 296.500 C 211.700 296.445 211.655 296.400 211.600 296.400 H 209.700 C 209.600 296.400 209.700 296.500 209.700 296.400 V 292.600 C 209.700 292.500 209.600 292.600 209.700 292.600 H 211.600 C 211.655 292.600 211.700 292.555 211.700 292.500 V 288.500 C 211.700 288.445 211.655 288.400 211.600 288.400 H 209.700 C 209.600 288.400 209.700 288.500 209.700 288.400 V 284.600 C 209.700 284.500 209.600 284.600 209.700 284.600 H 211.600 C 211.655 284.600 211.700 284.555 211.700 284.500 V 280.500 C 211.700 280.445 211.655 280.400 211.600 280.400 H 209.700 C 209.600 280.400 209.700 280.500 209.700 280.400 V 276.600 C 209.700 276.500 209.600 276.600 209.700 276.600 H 211.600 C 211.655 276.600 211.700 276.555 211.700 276.500 V 272.500 C 211.700 272.445 211.655 272.400 211.600 272.400 H 209.700 C 209.600 272.400 209.700 272.500 209.700 272.400 V 268.600 C 209.700 268.500 209.600 268.600 209.700 268.600 H 211.600 C 211.655 268.600 211.700 268.555 211.700 268.500 V 264.500 C 211.700 264.445 211.655 264.400 211.600 264.400 H 209.700 C 209.600 264.400 209.700 264.500 209.700 264.400 V 260.600 C 209.700 260.500 209.600 260.600 209.700 260.600 H 211.600 C 211.655 260.600 211.700 260.555 211.700 260.500 V 256.500 C 211.700 256.445 211.655 256.400 211.600 256.400 H 209.700 C 209.600 256.400 209.700 256.500 209.700 256.400 V 252.600 C 209.700 252.500 209.600 252.600 209.700 252.600 H 211.600 C 211.655 252.600 211.700 252.555 211.700 252.500 V 248.500 C 211.700 248.445 211.655 248.400 211.600 248.400 H 209.700 C 209.600 248.400 209.700 248.500 209.700 248.400 V 244.600 C 209.700 244.500 209.600 244.600 209.700 244.600 H 211.600 C 211.655 244.600 211.700 244.555 211.700 244.500 V 240.500 C 211.700 240.445 211.655 240.400 211.600 240.400 H 209.700 C 209.600 240.400 209.700 240.500 209.700 240.400 V 236.600 C 209.700 236.500 209.600 236.600 209.700 236.600 H 211.600 C 211.655 236.600 211.700 236.555 211.700 236.500 V 232.500 C 211.700 232.445 211.655 232.400 211.600 232.400 H 209.700 C 209.600 232.400 209.700 232.500 209.700 232.400 V 228.600 C 209.700 228.500 209.600 228.600 209.700 228.600 H 211.600 C 211.655 228.600 211.700 228.555 211.700 228.500 V 224.500 C 211.700 224.445 211.655 224.400 211.600 224.400 H 209.700 C 209.600 224.400 209.700 224.500 209.700 224.400 V 218.500 V 216.500 C 209.700 216.445 209.655 216.400 209.600 216.400 H 203.600 C 203.545 216.400 203.500 216.445 203.500 216.500 V 218.400 C 203.500 218.500 203.600 218.400 203.500 218.400 H 199.700 C 199.600 218.400 199.700 218.500 199.700 218.400 V 216.500 C 199.700 216.445 199.655 216.400 199.600 216.400 H 195.600 C 195.545 216.400 195.500 216.445 195.500 216.500 V 218.400 C 195.500 218.500 195.600 218.400 195.500 218.400 H 191.700 C 191.600 218.400 191.700 218.500 191.700 218.400 V 216.500 C 191.700 216.445 191.655 216.400 191.600 216.400 H 187.600 C 187.545 216.400 187.500 216.445 187.500 216.500 V 218.400 C 187.500 218.500 187.600 218.400 187.500 218.400 H 183.700 C 183.600 218.400 183.700 218.500 183.700 218.400 V 216.500 C 183.700 216.445 183.655 216.400 183.600 216.400 H 179.600 C 179.545 216.400 179.500 216.445 179.500 216.500 V 218.400 C 179.500 218.500 179.600 218.400 179.500 218.400 H 175.700 C 175.600 218.400 175.700 218.500 175.700 218.400 V 216.500 C 175.700 216.445 175.655 216.400 175.600 216.400 H 171.600 C 171.545 216.400 171.500 216.445 171.500 216.500 V 218.400 C 171.500 218.500 171.600 218.400 171.500 218.400 H 167.700 C 167.600 218.400 167.700 218.500 167.700 218.400 V 216.500 C 167.700 216.445 167.655 216.400 167.600 216.400 H 163.600 C 163.545 216.400 163.500 216.445 163.500 216.500 V 218.400 C 163.500 218.500 163.600 218.400 163.500 218.400 H 159.700 C 159.600 218.400 159.700 218.500 159.700 218.400 V 216.500 C 159.700 216.445 159.655 216.400 159.600 216.400 H 155.600 C 155.545 216.400 155.500 216.445 155.500 216.500 V 218.400 C 155.500 218.500 155.600 218.400 155.500 218.400 H 151.700 C 151.600 218.400 151.700 218.500 151.700 218.400 V 216.500 C 151.700 216.445 151.655 216.400 151.600 216.400 H 147.600 C 147.545 216.400 147.500 216.445 147.500 216.500 V 218.400 C 147.500 218.500 147.600 218.400 147.500 218.400 H 143.700 C 143.600 218.400 143.700 218.500 143.700 218.400 V 216.500 C 143.700 216.445 143.655 216.400 143.600 216.400 H 139.600 C 139.545 216.400 139.500 216.445 139.500 216.500 V 218.400 C 139.500 218.500 139.600 218.400 139.500 218.400 H 135.700 C 135.600 218.400 135.700 218.500 135.700 218.400 V 216.500 C 135.700 216.445 135.655 216.400 135.600 216.400 H 131.600 C 131.545 216.400 131.500 216.445 131.500 216.500 V 218.400 C 131.500 218.500 131.600 218.400 131.500 218.400 H 127.700 C 127.600 218.400 127.700 218.500 127.700 218.400 V 216.500 C 127.700 216.445 127.655 216.400 127.600 216.400 H 123.600 C 123.545 216.400 123.500 216.445 123.500 216.500 V 218.400 C 123.500 218.500 123.600 218.400 123.500 218.400 H 119.700 C 119.600 218.400 119.700 218.500 119.700 218.400 V 216.500 C 119.700 216.445 119.655 216.400 119.600 216.400 H 113.600 C 113.545 216.400 113.500 216.445 113.500 216.500 V 218.500 V 224.400 C 113.500 224.500 113.600 224.400 113.500 224.400 H 111.600 C 111.545 224.400 111.500 224.445 111.500 224.500 V 228.500 C 111.500 228.555 111.545 228.600 111.600 228.600 H 113.500 C 113.600 228.600 113.500 228.500 113.500 228.600 V 232.400 C 113.500 232.500 113.600 232.400 113.500 232.400 H 111.600 C 111.545 232.400 111.500 232.445 111.500 232.500 V 236.500 C 111.500 236.555 111.545 236.600 111.600 236.600 H 113.500 C 113.600 236.600 113.500 236.500 113.500 236.600 V 240.400 C 113.500 240.500 113.600 240.400 113.500 240.400 H 111.600 C 111.545 240.400 111.500 240.445 111.500 240.500 V 244.500 C 111.500 244.555 111.545 244.600 111.600 244.600 H 113.500 C 113.600 244.600 113.500 244.500 113.500 244.600 V 248.400 C 113.500 248.500 113.600 248.400 113.500 248.400 H 111.600 C 111.545 248.400 111.500 248.445 111.500 248.500 V 252.500 C 111.500 252.555 111.545 252.600 111.600 252.600 H 113.500 C 113.600 252.600 113.500 252.500 113.500 252.600 V 256.400 C 113.500 256.500 113.600 256.400 113.500 256.400 H 111.600 C 111.545 256.400 111.500 256.445 111.500 256.500 V 260.500 C 111.500 260.555 111.545 260.600 111.600 260.600 H 113.500 C 113.600 260.600 113.500 260.500 113.500 260.600 V 264.400 C 113.500 264.500 113.600 264.400 113.500 264.400 H 111.600 C 111.545 264.400 111.500 264.445 111.500 264.500 V 268.500 C 111.500 268.555 111.545 268.600 111.600 268.600 H 113.500 C 113.600 268.600 113.500 268.500 113.500 268.600 V 272.400 C 113.500 272.500 113.600 272.400 113.500 272.400 H 111.600 C 111.545 272.400 111.500 272.445 111.500 272.500 V 276.500 C 111.500 276.555 111.545 276.600 111.600 276.600 H 113.500 C 113.600 276.600 113.500 276.500 113.500 276.600 V 280.400 C 113.500 280.500 113.600 280.400 113.500 280.400 H 111.600 C 111.545 280.400 111.500 280.445 111.500 280.500 V 284.500 C 111.500 284.555 111.545 284.600 111.600 284.600 H 113.500 C 113.600 284.600 113.500 284.500 113.500 284.600 V 288.400 C 113.500 288.500 113.600 288.400 113.500 288.400 H 111.600 C 111.545 288.400 111.500 288.445 111.500 288.500 V 292.500 C 111.500 292.555 111.545 292.600 111.600 292.600 H 113.500 C 113.600 292.600 113.500 292.500 113.500 292.600 V 296.400 C 113.500 296.500 113.600 296.400 113.500 296.400 H 111.600 C 111.545 296.400 111.500 296.445 111.500 296.500 V 300.500 C 111.500 300.555 111.545 300.600 111.600 300.600 H 113.500 C 113.600 300.600 113.500 300.500 113.500 300.600 V 304.400 C 113.500 304.500 113.600 304.400 113.500 304.400 H 111.600 C 111.545 304.400 111.500 304.445 111.500 304.500 V 308.500 C 111.500 308.555 111.545 308.600 111.600 308.600 H 113.500 C 113.600 308.600 113.500 308.500 113.500 308.600 V 314.500 C 113.500 314.555 113.545 314.600 113.600 314.600" stroke="rgb(0,0,0)" stroke-width="0.20" />
</g>
<g id="p-3" style="fill:none;stroke-linecap:round;stroke-linejoin:round;">
  <text transform="matrix( 1.000 0.000 0.000 1.000 161.600 163.400 )" style="font-family: sans-serif ; font-weight: normal; font-style: normal; fill: rgb(255,0,0)" font-size="4px" text-anchor="middle" dominant-baseline="hanging">Wall 4</text><path d="M 113.600 213.400 H 119.500 C 119.600 213.400 119.500 213.300 119.500 213.400 V 215.300 C 119.500 215.355 119.545 215.400 119.600 215.400 H 123.600 C 123.655 215.400 123.700 215.355 123.700 215.300 V 213.400 C 123.700 213.300 123.600 213.400 123.700 213.400 H 127.500 C 127.600 213.400 127.500 213.300 127.500 213.400 V 215.300 C 127.500 215.355 127.545 215.400 127.600 215.400 H 131.600 C 131.655 215.400 131.700 215.355 131.700 215.300 V 213.400 C 131.700 213.300 131.600 213.400 131.700 213.400 H 135.500 C 135.600 213.400 135.500 213.300 135.500 213.400 V 215.300 C 135.500 215.355 135.545 215.400 135.600 215.400 H 139.600 C 139.655 215.400 139.700 215.355 139.700 215.300 V 213.400 C 139.700 213.300 139.600 213.400 139.700 213.400 H 143.500 C 143.600 213.400 143.500 213.300 143.500 213.400 V 215.300 C 143.500 215.355 143.545 215.400 143.600 215.400 H 147.600 C 147.655 215.400 147.700 215.355 147.700 215.300 V 213.400 C 147.700 213.300 147.600 213.400 147.700 213.400 H 151.500 C 151.600 213.400 151.500 213.300 151.500 213.400 V 215.300 C 151.500 215.355 151.545 215.400 151.600 215.400 H 155.600 C 155.655 215.400 155.700 215.355 155.700 215.300 V 213.400 C 155.700 213.300 155.600 213.400 155.700 213.400 H 159.500 C 159.600 213.400 159.500 213.300 159.500 213.400 V 215.300 C 159.500 215.355 159.545 215.400 159.600 215.400 H 163.600 C 163.655 215.400 163.700 215.355 163.700 215.300 V 213.400 C 163.700 213.300 163.600 213.400 163.700 213.400 H 167.500 C 167.600 213.400 167.500 213.300 167.500 213.400 V 215.300 C 167.500 215.355 167.545 215.400 167.600 215.400 H 171.600 C 171.655 215.400 171.700 215.355 171.700 215.300 V 213.400 C 171.700 213.300 171.600 213.400 171.700 213.400 H 175.500 C 175.600 213.400 175.500 213.300 175.500 213.400 V 215.300 C 175.500 215.355 175.545 215.400 175.600 215.400 H 179.600 C 179.655 215.400 179.700 215.355 179.700 215.300 V 213.400 C 179.700 213.300 179.600 213.400 179.700 213.400 H 183.500 C 183.600 213.400 183.500 213.300 183.500 213.400 V 215.300 C 183.500 215.355 183.545 215.400 183.600 215.400 H 187.600 C 187.655 215.400 187.700 215.355 187.700 215.300 V 213.400 C 187.700 213.300 187.600 213.400 187.700 213.400 H 191.500 C 191.600 213.400 191.500 213.300 191.500 213.400 V 215.300 C 191.500 215.355 191.545 215.400 191.600 215.400 H 195.600 C 195.655 215.400 195.700 215.355 195.700 215.300 V 213.400 C 195.700 213.300 195.600 213.400 195.700 213.400 H 199.500 C 199.600 213.400 199.500 213.300 199.500 213.400 V 215.300 C 199.500 215.355 199.545 215.400 199.600 215.400 H 203.600 C 203.655 215.400 203.700 215.355 203.700 215.300 V 213.400 C 203.700 213.300 203.600 213.400 203.700 213.400 H 209.600 C 209.655 213.400 209.700 213.355 209.700 213.300 V 207.400 C 209.700 207.300 209.600 207.400 209.700 207.400 H 211.600 C 211.655 207.400 211.700 207.355 211.700 207.300 V 203.300 C 211.700 203.245 211.655 203.200 211.600 203.200 H 209.700 C 209.600 203.200 209.700 203.300 209.700 203.200 V 199.400 C 209.700 199.300 209.600 199.400 209.700 199.400 H 211.600 C 211.655 199.400 211.700 199.355 211.700 199.300 V 195.300 C 211.700 195.245 211.655 195.200 211.600 195.200 H 209.700 C 209.600 195.200 209.700 195.300 209.700 195.200 V 191.400 C 209.700 191.300 209.600 191.400 209.700 191.400 H 211.600 C 211.655 191.400 211.700 191.355 211.700 191.300 V 187.300 C 211.700 187.245 211.655 187.200 211.600 187.200 H 209.700 C 209.600 187.200 209.700 187.300 209.700 187.200 V 183.400 C 209.700 183.300 209.600 183.400 209.700 183.400 H 211.600 C 211.655 183.400 211.700 183.355 211.700 183.300 V 179.300 C 211.700 179.245 211.655 179.200 211.600 179.200 H 209.700 C 209.600 179.200 209.700 179.300 209.700 179.200 V 175.400 C 209.700 175.300 209.600 175.400 209.700 175.400 H 211.600 C 211.655 175.400 211.700 175.355 211.700 175.300 V 171.300 C 211.700 171.245 211.655 171.200 211.600 171.200 H 209.700 C 209.600 171.200 209.700 171.300 209.700 171.200 V 167.400 C 209.700 167.300 209.600 167.400 209.700 167.400 H 211.600 C 211.655 167.400 211.700 167.355 211.700 167.300 V 163.300 C 211.700 163.245 211.655 163.200 211.600 163.200 H 209.700 C 209.600 163.200 209.700 163.300 209.700 163.200 V 159.400 C 209.700 159.300 209.600 159.400 209.700 159.400 H 211.600 C 211.655 159.400 211.700 159.355 211.700 159.300 V 155.300 C 211.700 155.245 211.655 155.200 211.600 155.200 H 209.700 C 209.600 155.200 209.700 155.300 209.700 155.200 V 151.400 C 209.700 151.300 209.600 151.400 209.700 151.400 H 211.600 C 211.655 151.400 211.700 151.355 211.700 151.300 V 147.300 C 211.700 147.245 211.655 147.200 211.600 147.200 H 209.700 C 209.600 147.200 209.700 147.300 209.700 147.200 V 143.400 C 209.700 143.300 209.600 143.400 209.700 143.400 H 211.600 C 211.655 143.400 211.700 143.355 211.700 143.300 V 139.300 C 211.700 139.245 211.655 139.200 211.600 139.200 H 209.700 C 209.600 139.200 209.700 139.300 209.700 139.200 V 135.400 C 209.700 135.300 209.600 135.400 209.700 135.400 H 211.600 C 211.655 135.400 211.700 135.355 211.700 135.300 V 131.300 C 211.700 131.245 211.655 131.200 211.600 131.200 H 209.700 C 209.600 131.200 209.700 131.300 209.700 131.200 V 127.400 C 209.700 127.300 209.600 127.400 209.700 127.400 H 211.600 C 211.655 127.400 211.700 127.355 211.700 127.300 V 123.300 C 211.700 123.245 211.655 123.200 211.600 123.200 H 209.700 C 209.600 123.200 209.700 123.300 209.700 123.200 V 117.300 V 115.300 C 209.700 115.245 209.655 115.200 209.600 115.200 H 203.600 C 203.545 115.200 203.500 115.245 203.500 115.300 V 117.200 C 203.500 117.300 203.600 117.200 203.500 117.200 H 199.700 C 199.600 117.200 199.700 117.300 199.700 117.200 V 115.300 C 199.700 115.245 199.655 115.200 199.600 115.200 H 195.600 C 195.545 115.200 195.500 115.245 195.500 115.300 V 117.200 C 195.500 117.300 195.600 117.200 195.500 117.200 H 191.700 C 191.600 117.200 191.700 117.300 191.700 117.200 V 115.300 C 191.700 115.245 191.655 115.200 191.600 115.200 H 187.600 C 187.545 115.200 187.500 115.245 187.500 115.300 V 117.200 C 187.500 117.300 187.600 117.200 187.500 117.200 H 183.700 C 183.600 117.200 183.700 117.300 183.700 117.200 V 115.300 C 183.700 115.245 183.655 115.200 183.600 115.200 H 179.600 C 179.545 115.200 179.500 115.245 179.500 115.300 V 117.200 C 179.500 117.300 179.600 117.200 179.500 117.200 H 175.700 C 175.600 117.200 175.700 117.300 175.700 117.200 V 115.300 C 175.700 115.245 175.655 115.200 175.600 115.200 H 171.600 C 171.545 115.200 171.500 115.245 171.500 115.300 V 117.200 C 171.500 117.300 171.600 117.200 171.500 117.200 H 167.700 C 167.600 117.200 167.700 117.300 167.700 117.200 V 115.300 C 167.700 115.245 167.655 115.200 167.600 115.200 H 163.600 C 163.545 115.200 163.500 115.245 163.500 115.300 V 117.200 C 163.500 117.300 163.600 117.200 163.500 117.200 H 159.700 C 159.600 117.200 159.700 117.300 159.700 117.200 V 115.300 C 159.700 115.245 159.655 115.200 159.600 115.200 H 155.600 C 155.545 115.200 155.500 115.245 155.500 115.300 V 117.200 C 155.500 117.300 155.600 117.200 155.500 117.200 H 151.700 C 151.600 117.200 151.700 117.300 151.700 117.200 V 115.300 C 151.700 115.245 151.655 115.200 151.600 115.200 H 147.600 C 147.545 115.200 147.500 115.245 147.500 115.300 V 117.200 C 147.500 117.300 147.600 117.200 147.500 117.200 H 143.700 C 143.600 117.200 143.700 117.300 143.700 117.200 V 115.300 C 143.700 115.245 143.655 115.200 143.600 115.200 H 139.600 C 139.545 115.200 139.500 115.245 139.500 115.300 V 117.200 C 139.500 117.300 139.600 117.200 139.500 117.200 H 135.700 C 135.600 117.200 135.700 117.300 135.700 117.200 V 115.300 C 135.700 115.245 135.655 115.200 135.600 115.200 H 131.600 C 131.545 115.200 131.500 115.245 131.500 115.300 V 117.200 C 131.500 117.300 131.600 117.200 131.500 117.200 H 127.700 C 127.600 117.200 127.700 117.300 127.700 117.200 V 115.300 C 127.700 115.245 127.655 115.200 127.600 115.200 H 123.600 C 123.545 115.200 123.500 115.245 123.500 115.300 V 117.200 C 123.500 117.300 123.600 117.200 123.500 117.200 H 119.700 C 119.600 117.200 119.700 117.300 119.700 117.200 V 115.300 C 119.700 115.245 119.655 115.200 119.600 115.200 H 113.600 C 113.545 115.200 113.500 115.245 113.500 115.300 V 117.300 V 123.200 C 113.500 123.300 113.600 123.200 113.500 123.200 H 111.600 C 111.545 123.200 111.500 123.245 111.500 123.300 V 127.300 C 111.500 127.355 111.545 127.400 111.600 127.400 H 113.500 C 113.600 127.400 113.500 127.300 113.500 127.400 V 131.200 C 113.500 131.300 113.600 131.200 113.500 131.200 H 111.600 C 111.545 131.200 111.500 131.245 111.500 131.300 V 135.300 C 111.500 135.355 111.545 135.400 111.600 135.400 H 113.500 C 113.600 135.400 113.500 135.300 113.500 135.400 V 139.200 C 113.500 139.300 113.600 139.200 113.500 139.200 H 111.600 C 111.545 139.200 111.500 139.245 111.500 139.300 V 143.300 C 111.500 143.355 111.545 143.400 111.600 143.400 H 113.500 C 113.600 143.400 113.500 143.300 113.500 143.400 V 147.200 C 113.500 147.300 113.600 147.200 113.500 147.200 H 111.600 C 111.545 147.200 111.500 147.245 111.500 147.300 V 151.300 C 111.500 151.355 111.545 151.400 111.600 151.400 H 113.500 C 113.600 151.400 113.500 151.300 113.500 151.400 V 155.200 C 113.500 155.300 113.600 155.200 113.500 155.200 H 111.600 C 111.545 155.200 111.500 155.245 111.500 155.300 V 159.300 C 111.500 159.355 111.545 159.400 111.600 159.400 H 113.500 C 113.600 159.400 113.500 159.300 113.500 159.400 V 163.200 C 113.500 163.300 113.600 163.200 113.500 163.200 H 111.600 C 111.545 163.200 111.500 163.245 111.500 163.300 V 167.300 C 111.500 167.355 111.545 167.400 111.600 167.400 H 113.500 C 113.600 167.400 113.500 167.300 113.500 167.400 V 171.200 C 113.500 171.300 113.600 171.200 113.500 171.200 H 111.600 C 111.545 171.200 111.500 171.245 111.500 171.300 V 175.300 C 111.500 175.355 111.545 175.400 111.600 175.400 H 113.500 C 113.600 175.400 113.500 175.300 113.500 175.400 V 179.200 C 113.500 179.300 113.600 179.200 113.500 179.200 H 111.600 C 111.545 179.200 111.500 179.245 111.500 179.300 V 183.300 C 111.500 183.355 111.545 183.400 111.600 183.400 H 113.500 C 113.600 183.400 113.500 183.300 113.500 183.400 V 187.200 C 113.500 187.300 113.600 187.200 113.500 187.200 H 111.600 C 111.545 187.200 111.500 187.245 111.500 187.300 V 191.300 C 111.500 191.355 111.545 191.400 111.600 191.400 H 113.500 C 113.600 191.400 113.500 191.300 113.500 191.400 V 195.200 C 113.500 195.300 113.600 195.200 113.500 195.200 H 111.600 C 111.545 195.200 111.500 195.245 111.500 195.300 V 199.300 C 111.500 199.355 111.545 199.400 111.600 199.400 H 113.500 C 113.600 199.400 113.500 199.300 113.500 199.400 V 203.200 C 113.500 203.300 113.600 203.200 113.500 203.200 H 111.600 C 111.545 203.200 111.500 203.245 111.500 203.300 V 207.300 C 111.500 207.355 111.545 207.400 111.600 207.400 H 113.500 C 113.600 207.400 113.500 207.300 113.500 207.400 V 213.300 C 113.500 213.355 113.545 213.400 113.600 213.400" stroke="rgb(0,0,0)" stroke-width="0.20" />
</g>
<g id="p-4" style="fill:none;stroke-linecap:round;stroke-linejoin:round;">
  <text transform="matrix( 1.000 0.000 0.000 1.000 60.400 163.400 )" style="font-family: sans-serif ; font-weight: normal; font-style: normal; fill: rgb(255,0,0)" font-size="4px" text-anchor="middle" dominant-baseline="hanging">Wall 3</text><path d="M 12.400 213.400 H 18.300 C 18.400 213.400 18.300 213.300 18.300 213.400 V 215.300 C 18.300 215.355 18.345 215.400 18.400 215.400 H 22.400 C 22.455 215.400 22.500 215.355 22.500 215.300 V 213.400 C 22.500 213.300 22.400 213.400 22.500 213.400 H 26.300 C 26.400 213.400 26.300 213.300 26.300 213.400 V 215.300 C 26.300 215.355 26.345 215.400 26.400 215.400 H 30.400 C 30.455 215.400 30.500 215.355 30.500 215.300 V 213.400 C 30.500 213.300 30.400 213.400 30.500 213.400 H 34.300 C 34.400 213.400 34.300 213.300 34.300 213.400 V 215.300 C 34.300 215.355 34.345 215.400 34.400 215.400 H 38.400 C 38.455 215.400 38.500 215.355 38.500 215.300 V 213.400 C 38.500 213.300 38.400 213.400 38.500 213.400 H 42.300 C 42.400 213.400 42.300 213.300 42.300 213.400 V 215.300 C 42.300 215.355 42.345 215.400 42.400 215.400 H 46.400 C 46.455 215.400 46.500 215.355 46.500 215.300 V 213.400 C 46.500 213.300 46.400 213.400 46.500 213.400 H 50.300 C 50.400 213.400 50.300 213.300 50.300 213.400 V 215.300 C 50.300 215.355 50.345 215.400 50.400 215.400 H 54.400 C 54.455 215.400 54.500 215.355 54.500 215.300 V 213.400 C 54.500 213.300 54.400 213.400 54.500 213.400 H 58.300 C 58.400 213.400 58.300 213.300 58.300 213.400 V 215.300 C 58.300 215.355 58.345 215.400 58.400 215.400 H 62.400 C 62.455 215.400 62.500 215.355 62.500 215.300 V 213.400 C 62.500 213.300 62.400 213.400 62.500 213.400 H 66.300 C 66.400 213.400 66.300 213.300 66.300 213.400 V 215.300 C 66.300 215.355 66.345 215.400 66.400 215.400 H 70.400 C 70.455 215.400 70.500 215.355 70.500 215.300 V 213.400 C 70.500 213.300 70.400 213.400 70.500 213.400 H 74.300 C 74.400 213.400 74.300 213.300 74.300 213.400 V 215.300 C 74.300 215.355 74.345 215.400 74.400 215.400 H 78.400 C 78.455 215.400 78.500 215.355 78.500 215.300 V 213.400 C 78.500 213.300 78.400 213.400 78.500 213.400 H 82.300 C 82.400 213.400 82.300 213.300 82.300 213.400 V 215.300 C 82.300 215.355 82.345 215.400 82.400 215.400 H 86.400 C 86.455 215.400 86.500 215.355 86.500 215.300 V 213.400 C 86.500 213.300 86.400 213.400 86.500 213.400 H 90.300 C 90.400 213.400 90.300 213.300 90.300 213.400 V 215.300 C 90.300 215.355 90.345 215.400 90.400 215.400 H 94.400 C 94.455 215.400 94.500 215.355 94.500 215.300 V 213.400 C 94.500 213.300 94.400 213.400 94.500 213.400 H 98.300 C 98.400 213.400 98.300 213.300 98.300 213.400 V 215.300 C 98.300 215.355 98.345 215.400 98.400 215.400 H 102.400 C 102.455 215.400 102.500 215.355 102.500 215.300 V 213.400 C 102.500 213.300 102.400 213.400 102.500 213.400 H 108.400 H 110.400 C 110.455 213.400 110.500 213.355 110.500 213.300 V 207.300 C 110.500 207.245 110.455 207.200 110.400 207.200 H 108.500 C 108.400 207.200 108.500 207.300 108.500 207.200 V 203.400 C 108.500 203.300 108.400 203.400 108.500 203.400 H 110.400 C 110.455 203.400 110.500 203.355 110.500 203.300 V 199.300 C 110.500 199.245 110.455 199.200 110.400 199.200 H 108.500 C 108.400 199.200 108.500 199.300 108.500 199.200 V 195.400 C 108.500 195.300 108.400 195.400 108.500 195.400 H 110.400 C 110.455 195.400 110.500 195.355 110.500 195.300 V 191.300 C 110.500 191.245 110.455 191.200 110.400 191.200 H 108.500 C 108.400 191.200 108.500 191.300 108.500 191.200 V 187.400 C 108.500 187.300 108.400 187.400 108.500 187.400 H 110.400 C 110.455 187.400 110.500 187.355 110.500 187.300 V 183.300 C 110.500 183.245 110.455 183.200 110.400 183.200 H 108.500 C 108.400 183.200 108.500 183.300 108.500 183.200 V 179.400 C 108.500 179.300 108.400 179.400 108.500 179.400 H 110.400 C 110.455 179.400 110.500 179.355 110.500 179.300 V 175.300 C 110.500 175.245 110.455 175.200 110.400 175.200 H 108.500 C 108.400 175.200 108.500 175.300 108.500 175.200 V 171.400 C 108.500 171.300 108.400 171.400 108.500 171.400 H 110.400 C 110.455 171.400 110.500 171.355 110.500 171.300 V 167.300 C 110.500 167.245 110.455 167.200 110.400 167.200 H 108.500 C 108.400 167.200 108.500 167.300 108.500 167.200 V 163.400 C 108.500 163.300 108.400 163.400 108.500 163.400 H 110.400 C 110.455 163.400 110.500 163.355 110.500 163.300 V 159.300 C 110.500 159.245 110.455 159.200 110.400 159.200 H 108.500 C 108.400 159.200 108.500 159.300 108.500 159.200 V 155.400 C 108.500 155.300 108.400 155.400 108.500 155.400 H 110.400 C 110.455 155.400 110.500 155.355 110.500 155.300 V 151.300 C 110.500 151.245 110.455 151.200 110.400 151.200 H 108.500 C 108.400 151.200 108.500 151.300 108.500 151.200 V 147.400 C 108.500 147.300 108.400 147.400 108.500 147.400 H 110.400 C 110.455 147.400 110.500 147.355 110.500 147.300 V 143.300 C 110.500 143.245 110.455 143.200 110.400 143.200 H 108.500 C 108.400 143.200 108.500 143.300 108.500 143.200 V 139.400 C 108.500 139.300 108.400 139.400 108.500 139.400 H 110.400 C 110.455 139.400 110.500 139.355 110.500 139.300 V 135.300 C 110.500 135.245 110.455 135.200 110.400 135.200 H 108.500 C 108.400 135.200 108.500 135.300 108.500 135.200 V 131.400 C 108.500 131.300 108.400 131.400 108.500 131.400 H 110.400 C 110.455 131.400 110.500 131.355 110.500 131.300 V 127.300 C 110.500 127.245 110.455 127.200 110.400 127.200 H 108.500 C 108.400 127.200 108.500 127.300 108.500 127.200 V 123.400 C 108.500 123.300 108.400 123.400 108.500 123.400 H 110.400 C 110.455 123.400 110.500 123.355 110.500 123.300 V 117.300 V 115.300 C 110.500 115.245 110.455 115.200 110.400 115.200 H 108.400 H 102.400 C 102.345 115.200 102.300 115.245 102.300 115.300 V 117.200 C 102.300 117.300 102.400 117.200 102.300 117.200 H 98.500 C 98.400 117.200 98.500 117.300 98.500 117.200 V 115.300 C 98.500 115.245 98.455 115.200 98.400 115.200 H 94.400 C 94.345 115.200 94.300 115.245 94.300 115.300 V 117.200 C 94.300 117.300 94.400 117.200 94.300 117.200 H 90.500 C 90.400 117.200 90.500 117.300 90.500 117.200 V 115.300 C 90.500 115.245 90.455 115.200 90.400 115.200 H 86.400 C 86.345 115.200 86.300 115.245 86.300 115.300 V 117.200 C 86.300 117.300 86.400 117.200 86.300 117.200 H 82.500 C 82.400 117.200 82.500 117.300 82.500 117.200 V 115.300 C 82.500 115.245 82.455 115.200 82.400 115.200 H 78.400 C 78.345 115.200 78.300 115.245 78.300 115.300 V 117.200 C 78.300 117.300 78.400 117.200 78.300 117.200 H 74.500 C 74.400 117.200 74.500 117.300 74.500 117.200 V 115.300 C 74.500 115.245 74.455 115.200 74.400 115.200 H 70.400 C 70.345 115.200 70.300 115.245 70.300 115.300 V 117.200 C 70.300 117.300 70.400 117.200 70.300 117.200 H 66.500 C 66.400 117.200 66.500 117.300 66.500 117.200 V 115.300 C 66.500 115.245 66.455 115.200 66.400 115.200 H 62.400 C 62.345 115.200 62.300 115.245 62.300 115.300 V 117.200 C 62.300 117.300 62.400 117.200 62.300 117.200 H 58.500 C 58.400 117.200 58.500 117.300 58.500 117.200 V 115.300 C 58.500 115.245 58.455 115.200 58.400 115.200 H 54.400 C 54.345 115.200 54.300 115.245 54.300 115.300 V 117.200 C 54.300 117.300 54.400 117.200 54.300 117.200 H 50.500 C 50.400 117.200 50.500 117.300 50.500 117.200 V 115.300 C 50.500 115.245 50.455 115.200 50.400 115.200 H 46.400 C 46.345 115.200 46.300 115.245 46.300 115.300 V 117.200 C 46.300 117.300 46.400 117.200 46.300 117.200 H 42.500 C 42.400 117.200 42.500 117.300 42.500 117.200 V 115.300 C 42.500 115.245 42.455 115.200 42.400 115.200 H 38.400 C 38.345 115.200 38.300 115.245 38.300 115.300 V 117.200 C 38.300 117.300 38.400 117.200 38.300 117.200 H 34.500 C 34.400 117.200 34.500 117.300 34.500 117.200 V 115.300 C 34.500 115.245 34.455 115.200 34.400 115.200 H 30.400 C 30.345 115.200 30.300 115.245 30.300 115.300 V 117.200 C 30.300 117.300 30.400 117.200 30.300 117.200 H 26.500 C 26.400 117.200 26.500 117.300 26.500 117.200 V 115.300 C 26.500 115.245 26.455 115.200 26.400 115.200 H 22.400 C 22.345 115.200 22.300 115.245 22.300 115.300 V 117.200 C 22.300 117.300 22.400 117.200 22.300 117.200 H 18.500 C 18.400 117.200 18.500 117.300 18.500 117.200 V 115.300 C 18.500 115.245 18.455 115.200 18.400 115.200 H 12.400 H 10.400 C 10.345 115.200 10.300 115.245 10.300 115.300 V 117.300 V 123.300 C 10.300 123.355 10.345 123.400 10.400 123.400 H 12.300 C 12.400 123.400 12.300 123.300 12.300 123.400 V 127.200 C 12.300 127.300 12.400 127.200 12.300 127.200 H 10.400 C 10.345 127.200 10.300 127.245 10.300 127.300 V 131.300 C 10.300 131.355 10.345 131.400 10.400 131.400 H 12.300 C 12.400 131.400 12.300 131.300 12.300 131.400 V 135.200 C 12.300 135.300 12.400 135.200 12.300 135.200 H 10.400 C 10.345 135.200 10.300 135.245 10.300 135.300 V 139.300 C 10.300 139.355 10.345 139.400 10.400 139.400 H 12.300 C 12.400 139.400 12.300 139.300 12.300 139.400 V 143.200 C 12.300 143.300 12.400 143.200 12.300 143.200 H 10.400 C 10.345 143.200 10.300 143.245 10.300 143.300 V 147.300 C 10.300 147.355 10.345 147.400 10.400 147.400 H 12.300 C 12.400 147.400 12.300 147.300 12.300 147.400 V 151.200 C 12.300 151.300 12.400 151.200 12.300 151.200 H 10.400 C 10.345 151.200 10.300 151.245 10.300 151.300 V 155.300 C 10.300 155.355 10.345 155.400 10.400 155.400 H 12.300 C 12.400 155.400 12.300 155.300 12.300 155.400 V 159.200 C 12.300 159.300 12.400 159.200 12.300 159.200 H 10.400 C 10.345 159.200 10.300 159.245 10.300 159.300 V 163.300 C 10.300 163.355 10.345 163.400 10.400 163.400 H 12.300 C 12.400 163.400 12.300 163.300 12.300 163.400 V 167.200 C 12.300 167.300 12.400 167.200 12.300 167.200 H 10.400 C 10.345 167.200 10.300 167.245 10.300 167.300 V 171.300 C 10.300 171.355 10.345 171.400 10.400 171.400 H 12.300 C 12.400 171.400 12.300 171.300 12.300 171.400 V 175.200 C 12.300 175.300 12.400 175.200 12.300 175.200 H 10.400 C 10.345 175.200 10.300 175.245 10.300 175.300 V 179.300 C 10.300 179.355 10.345 179.400 10.400 179.400 H 12.300 C 12.400 179.400 12.300 179.300 12.300 179.400 V 183.200 C 12.300 183.300 12.400 183.200 12.300 183.200 H 10.400 C 10.345 183.200 10.300 183.245 10.300 183.300 V 187.300 C 10.300 187.355 10.345 187.400 10.400 187.400 H 12.300 C 12.400 187.400 12.300 187.300 12.300 187.400 V 191.200 C 12.300 191.300 12.400 191.200 12.300 191.200 H 10.400 C 10.345 191.200 10.300 191.245 10.300 191.300 V 195.300 C 10.300 195.355 10.345 195.400 10.400 195.400 H 12.300 C 12.400 195.400 12.300 195.300 12.300 195.400 V 199.200 C 12.300 199.300 12.400 199.200 12.300 199.200 H 10.400 C 10.345 199.200 10.300 199.245 10.300 199.300 V 203.300 C 10.300 203.355 10.345 203.400 10.400 203.400 H 12.300 C 12.400 203.400 12.300 203.300 12.300 203.400 V 207.200 C 12.300 207.300 12.400 207.200 12.300 207.200 H 10.400 C 10.345 207.200 10.300 207.245 10.300 207.300 V 213.300 C 10.300 213.355 10.345 213.400 10.400 213.400 H 12.400" stroke="rgb(0,0,0)" stroke-width="0.20" />
</g>
<g id="p-5" style="fill:none;stroke-linecap:round;stroke-linejoin:round;">
  <text transform="matrix( 1.000 0.000 0.000 1.000 60.400 62.200 )" style="font-family: sans-serif ; font-weight: normal; font-style: normal; fill: rgb(255,0,0)" font-size="4px" text-anchor="middle" dominant-baseline="hanging">Top</text><path d="M 12.400 112.200 H 18.300 C 18.400 112.200 18.300 112.100 18.300 112.200 V 114.100 C 18.300 114.155 18.345 114.200 18.400 114.200 H 22.400 C 22.455 114.200 22.500 114.155 22.500 114.100 V 112.200 C 22.500 112.100 22.400 112.200 22.500 112.200 H 26.300 C 26.400 112.200 26.300 112.100 26.300 112.200 V 114.100 C 26.300 114.155 26.345 114.200 26.400 114.200 H 30.400 C 30.455 114.200 30.500 114.155 30.500 114.100 V 112.200 C 30.500 112.100 30.400 112.200 30.500 112.200 H 34.300 C 34.400 112.200 34.300 112.100 34.300 112.200 V 114.100 C 34.300 114.155 34.345 114.200 34.400 114.200 H 38.400 C 38.455 114.200 38.500 114.155 38.500 114.100 V 112.200 C 38.500 112.100 38.400 112.200 38.500 112.200 H 42.300 C 42.400 112.200 42.300 112.100 42.300 112.200 V 114.100 C 42.300 114.155 42.345 114.200 42.400 114.200 H 46.400 C 46.455 114.200 46.500 114.155 46.500 114.100 V 112.200 C 46.500 112.100 46.400 112.200 46.500 112.200 H 50.300 C 50.400 112.200 50.300 112.100 50.300 112.200 V 114.100 C 50.300 114.155 50.345 114.200 50.400 114.200 H 54.400 C 54.455 114.200 54.500 114.155 54.500 114.100 V 112.200 C 54.500 112.100 54.400 112.200 54.500 112.200 H 58.300 C 58.400 112.200 58.300 112.100 58.300 112.200 V 114.100 C 58.300 114.155 58.345 114.200 58.400 114.200 H 62.400 C 62.455 114.200 62.500 114.155 62.500 114.100 V 112.200 C 62.500 112.100 62.400 112.200 62.500 112.200 H 66.300 C 66.400 112.200 66.300 112.100 66.300 112.200 V 114.100 C 66.300 114.155 66.345 114.200 66.400 114.200 H 70.400 C 70.455 114.200 70.500 114.155 70.500 114.100 V 112.200 C 70.500 112.100 70.400 112.200 70.500 112.200 H 74.300 C 74.400 112.200 74.300 112.100 74.300 112.200 V 114.100 C 74.300 114.155 74.345 114.200 74.400 114.200 H 78.400 C 78.455 114.200 78.500 114.155 78.500 114.100 V 112.200 C 78.500 112.100 78.400 112.200 78.500 112.200 H 82.300 C 82.400 112.200 82.300 112.100 82.300 112.200 V 114.100 C 82.300 114.155 82.345 114.200 82.400 114.200 H 86.400 C 86.455 114.200 86.500 114.155 86.500 114.100 V 112.200 C 86.500 112.100 86.400 112.200 86.500 112.200 H 90.300 C 90.400 112.200 90.300 112.100 90.300 112.200 V 114.100 C 90.300 114.155 90.345 114.200 90.400 114.200 H 94.400 C 94.455 114.200 94.500 114.155 94.500 114.100 V 112.200 C 94.500 112.100 94.400 112.200 94.500 112.200 H 98.300 C 98.400 112.200 98.300 112.100 98.300 112.200 V 114.100 C 98.300 114.155 98.345 114.200 98.400 114.200 H 102.400 C 102.455 114.200 102.500 114.155 102.500 114.100 V 112.200 C 102.500 112.100 102.400 112.200 102.500 112.200 H 108.400 C 108.455 112.200 108.500 112.155 108.500 112.100 V 106.200 C 108.500 106.100 108.400 106.200 108.500 106.200 H 110.400 C 110.455 106.200 110.500 106.155 110.500 106.100 V 102.100 C 110.500 102.045 110.455 102.000 110.400 102.000 H 108.500 C 108.400 102.000 108.500 102.100 108.500 102.000 V 98.200 C 108.500 98.100 108.400 98.200 108.500 98.200 H 110.400 C 110.455 98.200 110.500 98.155 110.500 98.100 V 94.100 C 110.500 94.045 110.455 94.000 110.400 94.000 H 108.500 C 108.400 94.000 108.500 94.100 108.500 94.000 V 90.200 C 108.500 90.100 108.400 90.200 108.500 90.200 H 110.400 C 110.455 90.200 110.500 90.155 110.500 90.100 V 86.100 C 110.500 86.045 110.455 86.000 110.400 86.000 H 108.500 C 108.400 86.000 108.500 86.100 108.500 86.000 V 82.200 C 108.500 82.100 108.400 82.200 108.500 82.200 H 110.400 C 110.455 82.200 110.500 82.155 110.500 82.100 V 78.100 C 110.500 78.045 110.455 78.000 110.400 78.000 H 108.500 C 108.400 78.000 108.500 78.100 108.500 78.000 V 74.200 C 108.500 74.100 108.400 74.200 108.500 74.200 H 110.400 C 110.455 74.200 110.500 74.155 110.500 74.100 V 70.100 C 110.500 70.045 110.455 70.000 110.400 70.000 H 108.500 C 108.400 70.000 108.500 70.100 108.500 70.000 V 66.200 C 108.500 66.100 108.400 66.200 108.500 66.200 H 110.400 C 110.455 66.200 110.500 66.155 110.500 66.100 V 62.100 C 110.500 62.045 110.455 62.000 110.400 62.000 H 108.500 C 108.400 62.000 108.500 62.100 108.500 62.000 V 58.200 C 108.500 58.100 108.400 58.200 108.500 58.200 H 110.400 C 110.455 58.200 110.500 58.155 110.500 58.100 V 54.100 C 110.500 54.045 110.455 54.000 110.400 54.000 H 108.500 C 108.400 54.000 108.500 54.100 108.500 54.000 V 50.200 C 108.500 50.100 108.400 50.200 108.500 50.200 H 110.400 C 110.455 50.200 110.500 50.155 110.500 50.100 V 46.100 C 110.500 46.045 110.455 46.000 110.400 46.000 H 108.500 C 108.400 46.000 108.500 46.100 108.500 46.000 V 42.200 C 108.500 42.100 108.400 42.200 108.500 42.200 H 110.400 C 110.455 42.200 110.500 42.155 110.500 42.100 V 38.100 C 110.500 38.045 110.455 38.000 110.400 38.000 H 108.500 C 108.400 38.000 108.500 38.100 108.500 38.000 V 34.200 C 108.500 34.100 108.400 34.200 108.500 34.200 H 110.400 C 110.455 34.200 110.500 34.155 110.500 34.100 V 30.100 C 110.500 30.045 110.455 30.000 110.400 30.000 H 108.500 C 108.400 30.000 108.500 30.100 108.500 30.000 V 26.200 C 108.500 26.100 108.400 26.200 108.500 26.200 H 110.400 C 110.455 26.200 110.500 26.155 110.500 26.100 V 22.100 C 110.500 22.045 110.455 22.000 110.400 22.000 H 108.500 C 108.400 22.000 108.500 22.100 108.500 22.000 V 16.100 C 108.500 16.045 108.455 16.000 108.400 16.000 H 102.500 C 102.400 16.000 102.500 16.100 102.500 16.000 V 14.100 C 102.500 14.045 102.455 14.000 102.400 14.000 H 98.400 C 98.345 14.000 98.300 14.045 98.300 14.100 V 16.000 C 98.300 16.100 98.400 16.000 98.300 16.000 H 94.500 C 94.400 16.000 94.500 16.100 94.500 16.000 V 14.100 C 94.500 14.045 94.455 14.000 94.400 14.000 H 90.400 C 90.345 14.000 90.300 14.045 90.300 14.100 V 16.000 C 90.300 16.100 90.400 16.000 90.300 16.000 H 86.500 C 86.400 16.000 86.500 16.100 86.500 16.000 V 14.100 C 86.500 14.045 86.455 14.000 86.400 14.000 H 82.400 C 82.345 14.000 82.300 14.045 82.300 14.100 V 16.000 C 82.300 16.100 82.400 16.000 82.300 16.000 H 78.500 C 78.400 16.000 78.500 16.100 78.500 16.000 V 14.100 C 78.500 14.045 78.455 14.000 78.400 14.000 H 74.400 C 74.345 14.000 74.300 14.045 74.300 14.100 V 16.000 C 74.300 16.100 74.400 16.000 74.300 16.000 H 70.500 C 70.400 16.000 70.500 16.100 70.500 16.000 V 14.100 C 70.500 14.045 70.455 14.000 70.400 14.000 H 66.400 C 66.345 14.000 66.300 14.045 66.300 14.100 V 16.000 C 66.300 16.100 66.400 16.000 66.300 16.000 H 62.500 C 62.400 16.000 62.500 16.100 62.500 16.000 V 14.100 C 62.500 14.045 62.455 14.000 62.400 14.000 H 58.400 C 58.345 14.000 58.300 14.045 58.300 14.100 V 16.000 C 58.300 16.100 58.400 16.000 58.300 16.000 H 54.500 C 54.400 16.000 54.500 16.100 54.500 16.000 V 14.100 C 54.500 14.045 54.455 14.000 54.400 14.000 H 50.400 C 50.345 14.000 50.300 14.045 50.300 14.100 V 16.000 C 50.300 16.100 50.400 16.000 50.300 16.000 H 46.500 C 46.400 16.000 46.500 16.100 46.500 16.000 V 14.100 C 46.500 14.045 46.455 14.000 46.400 14.000 H 42.400 C 42.345 14.000 42.300 14.045 42.300 14.100 V 16.000 C 42.300 16.100 42.400 16.000 42.300 16.000 H 38.500 C 38.400 16.000 38.500 16.100 38.500 16.000 V 14.100 C 38.500 14.045 38.455 14.000 38.400 14.000 H 34.400 C 34.345 14.000 34.300 14.045 34.300 14.100 V 16.000 C 34.300 16.100 34.400 16.000 34.300 16.000 H 30.500 C 30.400 16.000 30.500 16.100 30.500 16.000 V 14.100 C 30.500 14.045 30.455 14.000 30.400 14.000 H 26.400 C 26.345 14.000 26.300 14.045 26.300 14.100 V 16.000 C 26.300 16.100 26.400 16.000 26.300 16.000 H 22.500 C 22.400 16.000 22.500 16.100 22.500 16.000 V 14.100 C 22.500 14.045 22.455 14.000 22.400 14.000 H 18.400 C 18.345 14.000 18.300 14.045 18.300 14.100 V 16.000 C 18.300 16.100 18.400 16.000 18.300 16.000 H 12.400 C 12.345 16.000 12.300 16.045 12.300 16.100 V 22.000 C 12.300 22.100 12.400 22.000 12.300 22.000 H 10.400 C 10.345 22.000 10.300 22.045 10.300 22.100 V 26.100 C 10.300 26.155 10.345 26.200 10.400 26.200 H 12.300 C 12.400 26.200 12.300 26.100 12.300 26.200 V 30.000 C 12.300 30.100 12.400 30.000 12.300 30.000 H 10.400 C 10.345 30.000 10.300 30.045 10.300 30.100 V 34.100 C 10.300 34.155 10.345 34.200 10.400 34.200 H 12.300 C 12.400 34.200 12.300 34.100 12.300 34.200 V 38.000 C 12.300 38.100 12.400 38.000 12.300 38.000 H 10.400 C 10.345 38.000 10.300 38.045 10.300 38.100 V 42.100 C 10.300 42.155 10.345 42.200 10.400 42.200 H 12.300 C 12.400 42.200 12.300 42.100 12.300 42.200 V 46.000 C 12.300 46.100 12.400 46.000 12.300 46.000 H 10.400 C 10.345 46.000 10.300 46.045 10.300 46.100 V 50.100 C 10.300 50.155 10.345 50.200 10.400 50.200 H 12.300 C 12.400 50.200 12.300 50.100 12.300 50.200 V 54.000 C 12.300 54.100 12.400 54.000 12.300 54.000 H 10.400 C 10.345 54.000 10.300 54.045 10.300 54.100 V 58.100 C 10.300 58.155 10.345 58.200 10.400 58.200 H 12.300 C 12.400 58.200 12.300 58.100 12.300 58.200 V 62.000 C 12.300 62.100 12.400 62.000 12.300 62.000 H 10.400 C 10.345 62.000 10.300 62.045 10.300 62.100 V 66.100 C 10.300 66.155 10.345 66.200 10.400 66.200 H 12.300 C 12.400 66.200 12.300 66.100 12.300 66.200 V 70.000 C 12.300 70.100 12.400 70.000 12.300 70.000 H 10.400 C 10.345 70.000 10.300 70.045 10.300 70.100 V 74.100 C 10.300 74.155 10.345 74.200 10.400 74.200 H 12.300 C 12.400 74.200 12.300 74.100 12.300 74.200 V 78.000 C 12.300 78.100 12.400 78.000 12.300 78.000 H 10.400 C 10.345 78.000 10.300 78.045 10.300 78.100 V 82.100 C 10.300 82.155 10.345 82.200 10.400 82.200 H 12.300 C 12.400 82.200 12.300 82.100 12.300 82.200 V 86.000 C 12.300 86.100 12.400 86.000 12.300 86.000 H 10.400 C 10.345 86.000 10.300 86.045 10.300 86.100 V 90.100 C 10.300 90.155 10.345 90.200 10.400 90.200 H 12.300 C 12.400 90.200 12.300 90.100 12.300 90.200 V 94.000 C 12.300 94.100 12.400 94.000 12.300 94.000 H 10.400 C 10.345 94.000 10.300 94.045 10.300 94.100 V 98.100 C 10.300 98.155 10.345 98.200 10.400 98.200 H 12.300 C 12.400 98.200 12.300 98.100 12.300 98.200 V 102.000 C 12.300 102.100 12.400 102.000 12.300 102.000 H 10.400 C 10.345 102.000 10.300 102.045 10.300 102.100 V 106.100 C 10.300 106.155 10.345 106.200 10.400 106.200 H 12.300 C 12.400 106.200 12.300 106.100 12.300 106.200 V 112.100 C 12.300 112.155 12.345 112.200 12.400 112.200" stroke="rgb(0,0,0)" stroke-width="0.20" />
</g>
<g id="p-6" style="fill:none;stroke-linecap:round;stroke-linejoin:round;">
  <path d="M 123.600 112.000 H 121.700 C 121.600 112.000 121.700 112.100 121.700 112.000 V 110.200 C 121.700 110.100 121.600 110.200 121.700 110.200 H 125.500 C 125.600 110.200 125.500 110.100 125.500 110.200 V 112.000 C 125.500 112.100 125.600 112.000 125.500 112.000 H 123.600 Z" stroke="rgb(0,0,255)" stroke-width="0.20" />
  <path d="M 131.600 112.000 H 129.700 C 129.600 112.000 129.700 112.100 129.700 112.000 V 110.200 C 129.700 110.100 129.600 110.200 129.700 110.200 H 133.500 C 133.600 110.200 133.500 110.100 133.500 110.200 V 112.000 C 133.500 112.100 133.600 112.000 133.500 112.000 H 131.600 Z" stroke="rgb(0,0,255)" stroke-width="0.20" />
  <path d="M 139.600 112.000 H 137.700 C 137.600 112.000 137.700 112.100 137.700 112.000 V 110.200 C 137.700 110.100 137.600 110.200 137.700 110.200 H 141.500 C 141.600 110.200 141.500 110.100 141.500 110.200 V 112.000 C 141.500 112.100 141.600 112.000 141.500 112.000 H 139.600 Z" stroke="rgb(0,0,255)" stroke-width="0.20" />
  <path d="M 147.600 112.000 H 145.700 C 145.600 112.000 145.700 112.100 145.700 112.000 V 110.200 C 145.700 110.100 145.600 110.200 145.700 110.200 H 149.500 C 149.600 110.200 149.500 110.100 149.500 110.200 V 112.000 C 149.500 112.100 149.600 112.000 149.500 112.000 H 147.600 Z" stroke="rgb(0,0,255)" stroke-width="0.20" />
  <path d="M 155.600 112.000 H 153.700 C 153.600 112.000 153.700 112.100 153.700 112.000 V 110.200 C 153.700 110.100 153.600 110.200 153.700 110.200 H 157.500 C 157.600 110.200 157.500 110.100 157.500 110.200 V 112.000 C 157.500 112.100 157.600 112.000 157.500 112.000 H 155.600 Z" stroke="rgb(0,0,255)" stroke-width="0.20" />
  <path d="M 163.600 112.000 H 161.700 C 161.600 112.000 161.700 112.100 161.700 112.000 V 110.200 C 161.700 110.100 161.600 110.200 161.700 110.200 H 165.500 C 165.600 110.200 165.500 110.100 165.500 110.200 V 112.000 C 165.500 112.100 165.600 112.000 165.500 112.000 H 163.600 Z" stroke="rgb(0,0,255)" stroke-width="0.20" />
  <path d="M 171.600 112.000 H 169.700 C 169.600 112.000 169.700 112.100 169.700 112.000 V 110.200 C 169.700 110.100 169.600 110.200 169.700 110.200 H 173.500 C 173.600 110.200 173.500 110.100 173.500 110.200 V 112.000 C 173.500 112.100 173.600 112.000 173.500 112.000 H 171.600 Z" stroke="rgb(0,0,255)" stroke-width="0.20" />
  <path d="M 179.600 112.000 H 177.700 C 177.600 112.000 177.700 112.100 177.700 112.000 V 110.200 C 177.700 110.100 177.600 110.200 177.700 110.200 H 181.500 C 181.600 110.200 181.500 110.100 181.500 110.200 V 112.000 C 181.500 112.100 181.600 112.000 181.500 112.000 H 179.600 Z" stroke="rgb(0,0,255)" stroke-width="0.20" />
  <path d="M 187.600 112.000 H 185.700 C 185.600 112.000 185.700 112.100 185.700 112.000 V 110.200 C 185.700 110.100 185.600 110.200 185.700 110.200 H 189.500 C 189.600 110.200 189.500 110.100 189.500 110.200 V 112.000 C 189.500 112.100 189.600 112.000 189.500 112.000 H 187.600 Z" stroke="rgb(0,0,255)" stroke-width="0.20" />
  <path d="M 195.600 112.000 H 193.700 C 193.600 112.000 193.700 112.100 193.700 112.000 V 110.200 C 193.700 110.100 193.600 110.200 193.700 110.200 H 197.500 C 197.600 110.200 197.500 110.100 197.500 110.200 V 112.000 C 197.500 112.100 197.600 112.000 197.500 112.000 H 195.600 Z" stroke="rgb(0,0,255)" stroke-width="0.20" />
  <path d="M 203.600 112.000 H 201.700 C 201.600 112.000 201.700 112.100 201.700 112.000 V 110.200 C 201.700 110.100 201.600 110.200 201.700 110.200 H 205.500 C 205.600 110.200 205.500 110.100 205.500 110.200 V 112.000 C 205.500 112.100 205.600 112.000 205.500 112.000 H 203.600 Z" stroke="rgb(0,0,255)" stroke-width="0.20" />
  <text transform="matrix( 1.000 0.000 0.000 1.000 163.600 60.200 )" style="font-family: sans-serif ; font-weight: normal; font-style: normal; fill: rgb(255,0,0)" font-size="4px" text-anchor="middle" dominant-baseline="hanging">Base</text><path d="M 115.600 114.200 H 211.600 H 215.600 C 215.655 114.200 215.700 114.155 215.700 114.100 V 110.100 V 14.100 V 10.100 C 215.700 10.045 215.655 10.000 215.600 10.000 H 211.600 H 115.600 H 111.600 C 111.545 10.000 111.500 10.045 111.500 10.100 V 14.100 V 110.100 V 114.100 C 111.500 114.155 111.545 114.200 111.600 114.200 H 115.600" stroke="rgb(0,0,0)" stroke-width="0.20" />
  <path d="M 213.500 102.100 V 104.000 C 213.500 104.100 213.600 104.000 213.500 104.000 H 211.700 C 211.600 104.000 211.700 104.100 211.700 104.000 V 100.200 C 211.700 100.100 211.600 100.200 211.700 100.200 H 213.500 C 213.600 100.200 213.500 100.100 213.500 100.200 V 102.100 Z" stroke="rgb(0,0,255)" stroke-width="0.20" />
  <path d="M 213.500 94.100 V 96.000 C 213.500 96.100 213.600 96.000 213.500 96.000 H 211.700 C 211.600 96.000 211.700 96.100 211.700 96.000 V 92.200 C 211.700 92.100 211.600 92.200 211.700 92.200 H 213.500 C 213.600 92.200 213.500 92.100 213.500 92.200 V 94.100 Z" stroke="rgb(0,0,255)" stroke-width="0.20" />
  <path d="M 213.500 86.100 V 88.000 C 213.500 88.100 213.600 88.000 213.500 88.000 H 211.700 C 211.600 88.000 211.700 88.100 211.700 88.000 V 84.200 C 211.700 84.100 211.600 84.200 211.700 84.200 H 213.500 C 213.600 84.200 213.500 84.100 213.500 84.200 V 86.100 Z" stroke="rgb(0,0,255)" stroke-width="0.20" />
  <path d="M 213.500 78.100 V 80.000 C 213.500 80.100 213.600 80.000 213.500 80.000 H 211.700 C 211.600 80.000 211.700 80.100 211.700 80.000 V 76.200 C 211.700 76.100 211.600 76.200 211.700 76.200 H 213.500 C 213.600 76.200 213.500 76.100 213.500 76.200 V 78.100 Z" stroke="rgb(0,0,255)" stroke-width="0.20" />
  <path d="M 213.500 70.100 V 72.000 C 213.500 72.100 213.600 72.000 213.500 72.000 H 211.700 C 211.600 72.000 211.700 72.100 211.700 72.000 V 68.200 C 211.700 68.100 211.600 68.200 211.700 68.200 H 213.500 C 213.600 68.200 213.500 68.100 213.500 68.200 V 70.100 Z" stroke="rgb(0,0,255)" stroke-width="0.20" />
  <path d="M 213.500 62.100 V 64.000 C 213.500 64.100 213.600 64.000 213.500 64.000 H 211.700 C 211.600 64.000 211.700 64.100 211.700 64.000 V 60.200 C 211.700 60.100 211.600 60.200 211.700 60.200 H 213.500 C 213.600 60.200 213.500 60.100 213.500 60.200 V 62.100 Z" stroke="rgb(0,0,255)" stroke-width="0.20" />
  <path d="M 213.500 54.100 V 56.000 C 213.500 56.100 213.600 56.000 213.500 56.000 H 211.700 C 211.600 56.000 211.700 56.100 211.700 56.000 V 52.200 C 211.700 52.100 211.600 52.200 211.700 52.200 H 213.500 C 213.600 52.200 213.500 52.100 213.500 52.200 V 54.100 Z" stroke="rgb(0,0,255)" stroke-width="0.20" />
  <path d="M 213.500 46.100 V 48.000 C 213.500 48.100 213.600 48.000 213.500 48.000 H 211.700 C 211.600 48.000 211.700 48.100 211.700 48.000 V 44.200 C 211.700 44.100 211.600 44.200 211.700 44.200 H 213.500 C 213.600 44.200 213.500 44.100 213.500 44.200 V 46.100 Z" stroke="rgb(0,0,255)" stroke-width="0.20" />
  <path d="M 213.500 38.100 V 40.000 C 213.500 40.100 213.600 40.000 213.500 40.000 H 211.700 C 211.600 40.000 211.700 40.100 211.700 40.000 V 36.200 C 211.700 36.100 211.600 36.200 211.700 36.200 H 213.500 C 213.600 36.200 213.500 36.100 213.500 36.200 V 38.100 Z" stroke="rgb(0,0,255)" stroke-width="0.20" />
  <path d="M 213.500 30.100 V 32.000 C 213.500 32.100 213.600 32.000 213.500 32.000 H 211.700 C 211.600 32.000 211.700 32.100 211.700 32.000 V 28.200 C 211.700 28.100 211.600 28.200 211.700 28.200 H 213.500 C 213.600 28.200 213.500 28.100 213.500 28.200 V 30.100 Z" stroke="rgb(0,0,255)" stroke-width="0.20" />
  <path d="M 213.500 22.100 V 24.000 C 213.500 24.100 213.600 24.000 213.500 24.000 H 211.700 C 211.600 24.000 211.700 24.100 211.700 24.000 V 20.200 C 211.700 20.100 211.600 20.200 211.700 20.200 H 213.500 C 213.600 20.200 213.500 20.100 213.500 20.200 V 22.100 Z" stroke="rgb(0,0,255)" stroke-width="0.20" />
  <path d="M 203.600 12.200 H 205.500 C 205.600 12.200 205.500 12.100 205.500 12.200 V 14.000 C 205.500 14.100 205.600 14.000 205.500 14.000 H 201.700 C 201.600 14.000 201.700 14.100 201.700 14.000 V 12.200 C 201.700 12.100 201.600 12.200 201.700 12.200 H 203.600 Z" stroke="rgb(0,0,255)" stroke-width="0.20" />
  <path d="M 195.600 12.200 H 197.500 C 197.600 12.200 197.500 12.100 197.500 12.200 V 14.000 C 197.500 14.100 197.600 14.000 197.500 14.000 H 193.700 C 193.600 14.000 193.700 14.100 193.700 14.000 V 12.200 C 193.700 12.100 193.600 12.200 193.700 12.200 H 195.600 Z" stroke="rgb(0,0,255)" stroke-width="0.20" />
  <path d="M 187.600 12.200 H 189.500 C 189.600 12.200 189.500 12.100 189.500 12.200 V 14.000 C 189.500 14.100 189.600 14.000 189.500 14.000 H 185.700 C 185.600 14.000 185.700 14.100 185.700 14.000 V 12.200 C 185.700 12.100 185.600 12.200 185.700 12.200 H 187.600 Z" stroke="rgb(0,0,255)" stroke-width="0.20" />
  <path d="M 179.600 12.200 H 181.500 C 181.600 12.200 181.500 12.100 181.500 12.200 V 14.000 C 181.500 14.100 181.600 14.000 181.500 14.000 H 177.700 C 177.600 14.000 177.700 14.100 177.700 14.000 V 12.200 C 177.700 12.100 177.600 12.200 177.700 12.200 H 179.600 Z" stroke="rgb(0,0,255)" stroke-width="0.20" />
  <path d="M 171.600 12.200 H 173.500 C 173.600 12.200 173.500 12.100 173.500 12.200 V 14.000 C 173.500 14.100 173.600 14.000 173.500 14.000 H 169.700 C 169.600 14.000 169.700 14.100 169.700 14.000 V 12.200 C 169.700 12.100 169.600 12.200 169.700 12.200 H 171.600 Z" stroke="rgb(0,0,255)" stroke-width="0.20" />
  <path d="M 163.600 12.200 H 165.500 C 165.600 12.200 165.500 12.100 165.500 12.200 V 14.000 C 165.500 14.100 165.600 14.000 165.500 14.000 H 161.700 C 161.600 14.000 161.700 14.100 161.700 14.000 V 12.200 C 161.700 12.100 161.600 12.200 161.700 12.200 H 163.600 Z" stroke="rgb(0,0,255)" stroke-width="0.20" />
  <path d="M 155.600 12.200 H 157.500 C 157.600 12.200 157.500 12.100 157.500 12.200 V 14.000 C 157.500 14.100 157.600 14.000 157.500 14.000 H 153.700 C 153.600 14.000 153.700 14.100 153.700 14.000 V 12.200 C 153.700 12.100 153.600 12.200 153.700 12.200 H 155.600 Z" stroke="rgb(0,0,255)" stroke-width="0.20" />
  <path d="M 147.600 12.200 H 149.500 C 149.600 12.200 149.500 12.100 149.500 12.200 V 14.000 C 149.500 14.100 149.600 14.000 149.500 14.000 H 145.700 C 145.600 14.000 145.700 14.100 145.700 14.000 V 12.200 C 145.700 12.100 145.600 12.200 145.700 12.200 H 147.600 Z" stroke="rgb(0,0,255)" stroke-width="0.20" />
  <path d="M 139.600 12.200 H 141.500 C 141.600 12.200 141.500 12.100 141.500 12.200 V 14.000 C 141.500 14.100 141.600 14.000 141.500 14.000 H 137.700 C 137.600 14.000 137.700 14.100 137.700 14.000 V 12.200 C 137.700 12.100 137.600 12.200 137.700 12.200 H 139.600 Z" stroke="rgb(0,0,255)" stroke-width="0.20" />
  <path d="M 131.600 12.200 H 133.500 C 133.600 12.200 133.500 12.100 133.500 12.200 V 14.000 C 133.500 14.100 133.600 14.000 133.500 14.000 H 129.700 C 129.600 14.000 129.700 14.100 129.700 14.000 V 12.200 C 129.700 12.100 129.600 12.200 129.700 12.200 H 131.600 Z" stroke="rgb(0,0,255)" stroke-width="0.20" />
  <path d="M 123.600 12.200 H 125.500 C 125.600 12.200 125.500 12.100 125.500 12.200 V 14.000 C 125.500 14.100 125.600 14.000 125.500 14.000 H 121.700 C 121.600 14.000 121.700 14.100 121.700 14.000 V 12.200 C 121.700 12.100 121.600 12.200 121.700 12.200 H 123.600 Z" stroke="rgb(0,0,255)" stroke-width="0.20" />
  <path d="M 113.700 22.100 V 20.200 C 113.700 20.100 113.600 20.200 113.700 20.200 H 115.500 C 115.600 20.200 115.500 20.100 115.500 20.200 V 24.000 C 115.500 24.100 115.600 24.000 115.500 24.000 H 113.700 C 113.600 24.000 113.700 24.100 113.700 24.000 V 22.100 Z" stroke="rgb(0,0,255)" stroke-width="0.20" />
  <path d="M 113.700 30.100 V 28.200 C 113.700 28.100 113.600 28.200 113.700 28.200 H 115.500 C 115.600 28.200 115.500 28.100 115.500 28.200 V 32.000 C 115.500 32.100 115.600 32.000 115.500 32.000 H 113.700 C 113.600 32.000 113.700 32.100 113.700 32.000 V 30.100 Z" stroke="rgb(0,0,255)" stroke-width="0.20" />
  <path d="M 113.700 38.100 V 36.200 C 113.700 36.100 113.600 36.200 113.700 36.200 H 115.500 C 115.600 36.200 115.500 36.100 115.500 36.200 V 40.000 C 115.500 40.100 115.600 40.000 115.500 40.000 H 113.700 C 113.600 40.000 113.700 40.100 113.700 40.000 V 38.100 Z" stroke="rgb(0,0,255)" stroke-width="0.20" />
  <path d="M 113.700 46.100 V 44.200 C 113.700 44.100 113.600 44.200 113.700 44.200 H 115.500 C 115.600 44.200 115.500 44.100 115.500 44.200 V 48.000 C 115.500 48.100 115.600 48.000 115.500 48.000 H 113.700 C 113.600 48.000 113.700 48.100 113.700 48.000 V 46.100 Z" stroke="rgb(0,0,255)" stroke-width="0.20" />
  <path d="M 113.700 54.100 V 52.200 C 113.700 52.100 113.600 52.200 113.700 52.200 H 115.500 C 115.600 52.200 115.500 52.100 115.500 52.200 V 56.000 C 115.500 56.100 115.600 56.000 115.500 56.000 H 113.700 C 113.600 56.000 113.700 56.100 113.700 56.000 V 54.100 Z" stroke="rgb(0,0,255)" stroke-width="0.20" />
  <path d="M 113.700 62.100 V 60.200 C 113.700 60.100 113.600 60.200 113.700 60.200 H 115.500 C 115.600 60.200 115.500 60.100 115.500 60.200 V 64.000 C 115.500 64.100 115.600 64.000 115.500 64.000 H 113.700 C 113.600 64.000 113.700 64.100 113.700 64.000 V 62.100 Z" stroke="rgb(0,0,255)" stroke-width="0.20" />
  <path d="M 113.700 70.100 V 68.200 C 113.700 68.100 113.600 68.200 113.700 68.200 H 115.500 C 115.600 68.200 115.500 68.100 115.500 68.200 V 72.000 C 115.500 72.100 115.600 72.000 115.500 72.000 H 113.700 C 113.600 72.000 113.700 72.100 113.700 72.000 V 70.100 Z" stroke="rgb(0,0,255)" stroke-width="0.20" />
  <path d="M 113.700 78.100 V 76.200 C 113.700 76.100 113.600 76.200 113.700 76.200 H 115.500 C 115.600 76.200 115.500 76.100 115.500 76.200 V 80.000 C 115.500 80.100 115.600 80.000 115.500 80.000 H 113.700 C 113.600 80.000 113.700 80.100 113.700 80.000 V 78.100 Z" stroke="rgb(0,0,255)" stroke-width="0.20" />
  <path d="M 113.700 86.100 V 84.200 C 113.700 84.100 113.600 84.200 113.700 84.200 H 115.500 C 115.600 84.200 115.500 84.100 115.500 84.200 V 88.000 C 115.500 88.100 115.600 88.000 115.500 88.000 H 113.700 C 113.600 88.000 113.700 88.100 113.700 88.000 V 86.100 Z" stroke="rgb(0,0,255)" stroke-width="0.20" />
  <path d="M 113.700 94.100 V 92.200 C 113.700 92.100 113.600 92.200 113.700 92.200 H 115.500 C 115.600 92.200 115.500 92.100 115.500 92.200 V 96.000 C 115.500 96.100 115.600 96.000 115.500 96.000 H 113.700 C 113.600 96.000 113.700 96.100 113.700 96.000 V 94.100 Z" stroke="rgb(0,0,255)" stroke-width="0.20" />
  <path d="M 113.700 102.100 V 100.200 C 113.700 100.100 113.600 100.200 113.700 100.200 H 115.500 C 115.600 100.200 115.500 100.100 115.500 100.200 V 104.000 C 115.500 104.100 115.600 104.000 115.500 104.000 H 113.700 C 113.600 104.000 113.700 104.100 113.700 104.000 V 102.100 Z" stroke="rgb(0,0,255)" stroke-width="0.20" />
</g>
</svg>