<?xml version="1.0" encoding="UTF-8" standalone="no"?>
<svg
   width="200mm"
   height="200mm"
   viewBox="0 0 199.99999 200"
   version="1.1"
   id="svg121"
   sodipodi:docname="BasedBox.svg"
   inkscape:version="1.2.2 (732a01da63, 2022-12-09)"
   xmlns:inkscape="http://www.inkscape.org/namespaces/inkscape"
   xmlns:sodipodi="http://sodipodi.sourceforge.net/DTD/sodipodi-0.dtd"
   xmlns="http://www.w3.org/2000/svg"
   xmlns:svg="http://www.w3.org/2000/svg"
   xmlns:rdf="http://www.w3.org/1999/02/22-rdf-syntax-ns#"
   xmlns:cc="http://creativecommons.org/ns#"
   xmlns:dc="http://purl.org/dc/elements/1.1/">
  <defs
     id="defs125" />
  <sodipodi:namedview
     id="namedview123"
     pagecolor="#ffffff"
     bordercolor="#000000"
     borderopacity="0.25"
     inkscape:showpageshadow="2"
     inkscape:pageopacity="0.0"
     inkscape:pagecheckerboard="0"
     inkscape:deskcolor="#d1d1d1"
     inkscape:document-units="mm"
     showgrid="false"
     inkscape:zoom="0.42867096"
     inkscape:cx="583.1979"
     inkscape:cy="277.6022"
     inkscape:window-width="1920"
     inkscape:window-height="1057"
     inkscape:window-x="-8"
     inkscape:window-y="-8"
     inkscape:window-maximized="1"
     inkscape:current-layer="svg121" />
  <!--
BasedBox - Fully closed box on a base


This box is more of a building block than a finished item.
Use a vector graphics program (like Inkscape) to add holes or adjust the base
plate. The width of the "brim" can also be adjusted with the **edge_width**
 parameter in the **Finger Joints Settings**.
 
See ClosedBox for variant without a base.



Created with Boxes.py (https://festi.info/boxes.py)
Creation date: 2023-06-30 18:07:59
Command line (remove spaces between dashes): boxes BasedBox - -x=140 - -y=140 - -h=180
Url: http://www.festi.info/boxes.py/BasedBox?FingerJoint_angle=90.0&FingerJoint_style=rectangular&FingerJoint_surroundingspaces=2.0&FingerJoint_bottom_lip=0.0&FingerJoint_edge_width=1.0&FingerJoint_extra_length=0.0&FingerJoint_finger=2.0&FingerJoint_play=0.0&FingerJoint_space=2.0&FingerJoint_width=1.0&x=140&y=140&h=180&outside=0&outside=1&thickness=3.0&format=svg&tabs=0.0&qr_code=0&debug=0&labels=0&labels=1&reference=100&inner_corners=loop&burn=0.1&language=fr&render=1
Url short: http://www.festi.info/boxes.py/BasedBox?x=140&y=140&h=180
SettingsUrl: http://www.festi.info/boxes.py/BasedBox?FingerJoint_angle=90.0&FingerJoint_style=rectangular&FingerJoint_surroundingspaces=2.0&FingerJoint_bottom_lip=0.0&FingerJoint_edge_width=1.0&FingerJoint_extra_length=0.0&FingerJoint_finger=2.0&FingerJoint_play=0.0&FingerJoint_space=2.0&FingerJoint_width=1.0&x=140&y=140&h=180&outside=0&outside=1&thickness=3.0&format=svg&tabs=0.0&qr_code=0&debug=0&labels=0&labels=1&reference=100&inner_corners=loop&burn=0.1&language=fr
SettingsUrl short: http://www.festi.info/boxes.py/BasedBox?x=140&y=140&h=180
-->
  <title
     id="title2">BasedBox</title>
  <metadata
     id="metadata4">
    <rdf:RDF>
      <cc:Work>
        <dc:title>BasedBox</dc:title>
        <dc:date>2023-06-30 18:07:59</dc:date>
        <dc:source>http://www.festi.info/boxes.py/BasedBox?FingerJoint_angle=90.0&amp;FingerJoint_style=rectangular&amp;FingerJoint_surroundingspaces=2.0&amp;FingerJoint_bottom_lip=0.0&amp;FingerJoint_edge_width=1.0&amp;FingerJoint_extra_length=0.0&amp;FingerJoint_finger=2.0&amp;FingerJoint_play=0.0&amp;FingerJoint_space=2.0&amp;FingerJoint_width=1.0&amp;x=140&amp;y=140&amp;h=180&amp;outside=0&amp;outside=1&amp;thickness=3.0&amp;format=svg&amp;tabs=0.0&amp;qr_code=0&amp;debug=0&amp;labels=0&amp;labels=1&amp;reference=100&amp;inner_corners=loop&amp;burn=0.1&amp;language=fr&amp;render=1</dc:source>
        <dc:source>http://www.festi.info/boxes.py/BasedBox?x=140&amp;y=140&amp;h=180</dc:source>
        <dc:description>Fully closed box on a base

This box is more of a building block than a finished item.
Use a vector graphics program (like Inkscape) to add holes or adjust the base
plate. The width of the &quot;brim&quot; can also be adjusted with the **edge_width**
 parameter in the **Finger Joints Settings**.
 
See ClosedBox for variant without a base.


Created with Boxes.py (https://festi.info/boxes.py)
Command line: boxes BasedBox --FingerJoint_angle=90.0 --FingerJoint_style=rectangular --FingerJoint_surroundingspaces=2.0 --FingerJoint_bottom_lip=0.0 --FingerJoint_edge_width=1.0 --FingerJoint_extra_length=0.0 --FingerJoint_finger=2.0 --FingerJoint_play=0.0 --FingerJoint_space=2.0 --FingerJoint_width=1.0 --x=140 --y=140 --h=180 --outside=0 --outside=1 --thickness=3.0 --format=svg --tabs=0.0 --qr_code=0 --debug=0 --labels=0 --labels=1 --reference=100 --inner_corners=loop --burn=0.1
Command line short: boxes BasedBox --x=140 --y=140 --h=180
Url: http://www.festi.info/boxes.py/BasedBox?FingerJoint_angle=90.0&amp;FingerJoint_style=rectangular&amp;FingerJoint_surroundingspaces=2.0&amp;FingerJoint_bottom_lip=0.0&amp;FingerJoint_edge_width=1.0&amp;FingerJoint_extra_length=0.0&amp;FingerJoint_finger=2.0&amp;FingerJoint_play=0.0&amp;FingerJoint_space=2.0&amp;FingerJoint_width=1.0&amp;x=140&amp;y=140&amp;h=180&amp;outside=0&amp;outside=1&amp;thickness=3.0&amp;format=svg&amp;tabs=0.0&amp;qr_code=0&amp;debug=0&amp;labels=0&amp;labels=1&amp;reference=100&amp;inner_corners=loop&amp;burn=0.1&amp;language=fr&amp;render=1
Url short: http://www.festi.info/boxes.py/BasedBox?x=140&amp;y=140&amp;h=180
SettingsUrl: http://www.festi.info/boxes.py/BasedBox?FingerJoint_angle=90.0&amp;FingerJoint_style=rectangular&amp;FingerJoint_surroundingspaces=2.0&amp;FingerJoint_bottom_lip=0.0&amp;FingerJoint_edge_width=1.0&amp;FingerJoint_extra_length=0.0&amp;FingerJoint_finger=2.0&amp;FingerJoint_play=0.0&amp;FingerJoint_space=2.0&amp;FingerJoint_width=1.0&amp;x=140&amp;y=140&amp;h=180&amp;outside=0&amp;outside=1&amp;thickness=3.0&amp;format=svg&amp;tabs=0.0&amp;qr_code=0&amp;debug=0&amp;labels=0&amp;labels=1&amp;reference=100&amp;inner_corners=loop&amp;burn=0.1&amp;language=fr
SettingsUrl short: http://www.festi.info/boxes.py/BasedBox?x=140&amp;y=140&amp;h=180
</dc:description>
      </cc:Work>
    </rdf:RDF>
  </metadata>
  <path
     d="m 27.28826,149.29669 h -2.9 c -0.1,0 0,0.1 0,0 v -2.8 c 0,-0.1 -0.1,0 0,0 h 5.8 c 0.1,0 0,-0.1 0,0 v 2.8 c 0,0.1 0.1,0 0,0 z"
     stroke="#0000ff"
     stroke-width="0.2"
     id="path36"
     style="fill:none;stroke-linecap:round;stroke-linejoin:round" />
  <path
     d="m 39.28826,149.29669 h -2.9 c -0.1,0 0,0.1 0,0 v -2.8 c 0,-0.1 -0.1,0 0,0 h 5.8 c 0.1,0 0,-0.1 0,0 v 2.8 c 0,0.1 0.1,0 0,0 z"
     stroke="#0000ff"
     stroke-width="0.2"
     id="path38"
     style="fill:none;stroke-linecap:round;stroke-linejoin:round" />
  <path
     d="m 51.28826,149.29669 h -2.9 c -0.1,0 0,0.1 0,0 v -2.8 c 0,-0.1 -0.1,0 0,0 h 5.8 c 0.1,0 0,-0.1 0,0 v 2.8 c 0,0.1 0.1,0 0,0 z"
     stroke="#0000ff"
     stroke-width="0.2"
     id="path40"
     style="fill:none;stroke-linecap:round;stroke-linejoin:round" />
  <path
     d="m 63.28826,149.29669 h -2.9 c -0.1,0 0,0.1 0,0 v -2.8 c 0,-0.1 -0.1,0 0,0 h 5.8 c 0.1,0 0,-0.1 0,0 v 2.8 c 0,0.1 0.1,0 0,0 z"
     stroke="#0000ff"
     stroke-width="0.2"
     id="path42"
     style="fill:none;stroke-linecap:round;stroke-linejoin:round" />
  <path
     d="m 75.28826,149.29669 h -2.9 c -0.1,0 0,0.1 0,0 v -2.8 c 0,-0.1 -0.1,0 0,0 h 5.8 c 0.1,0 0,-0.1 0,0 v 2.8 c 0,0.1 0.1,0 0,0 z"
     stroke="#0000ff"
     stroke-width="0.2"
     id="path44"
     style="fill:none;stroke-linecap:round;stroke-linejoin:round" />
  <path
     d="m 87.28826,149.29669 h -2.9 c -0.1,0 0,0.1 0,0 v -2.8 c 0,-0.1 -0.1,0 0,0 h 5.8 c 0.1,0 0,-0.1 0,0 v 2.8 c 0,0.1 0.1,0 0,0 z"
     stroke="#0000ff"
     stroke-width="0.2"
     id="path46"
     style="fill:none;stroke-linecap:round;stroke-linejoin:round" />
  <path
     d="m 99.28826,149.29669 h -2.9 c -0.1,0 0,0.1 0,0 v -2.8 c 0,-0.1 -0.1,0 0,0 h 5.8 c 0.1,0 0,-0.1 0,0 v 2.8 c 0,0.1 0.1,0 0,0 z"
     stroke="#0000ff"
     stroke-width="0.2"
     id="path48"
     style="fill:none;stroke-linecap:round;stroke-linejoin:round" />
  <path
     d="m 111.28826,149.29669 h -2.9 c -0.1,0 0,0.1 0,0 v -2.8 c 0,-0.1 -0.1,0 0,0 h 5.8 c 0.1,0 0,-0.1 0,0 v 2.8 c 0,0.1 0.1,0 0,0 z"
     stroke="#0000ff"
     stroke-width="0.2"
     id="path50"
     style="fill:none;stroke-linecap:round;stroke-linejoin:round" />
  <path
     d="m 123.28826,149.29669 h -2.9 c -0.1,0 0,0.1 0,0 v -2.8 c 0,-0.1 -0.1,0 0,0 h 5.8 c 0.1,0 0,-0.1 0,0 v 2.8 c 0,0.1 0.1,0 0,0 z"
     stroke="#0000ff"
     stroke-width="0.2"
     id="path52"
     style="fill:none;stroke-linecap:round;stroke-linejoin:round" />
  <path
     d="m 135.28826,149.29669 h -2.9 c -0.1,0 0,0.1 0,0 v -2.8 c 0,-0.1 -0.1,0 0,0 h 5.8 c 0.1,0 0,-0.1 0,0 v 2.8 c 0,0.1 0.1,0 0,0 z"
     stroke="#0000ff"
     stroke-width="0.2"
     id="path54"
     style="fill:none;stroke-linecap:round;stroke-linejoin:round" />
  <path
     d="m 14.28826,152.49669 h 134 6 c 0.055,0 0.1,-0.045 0.1,-0.1 v -6 V 12.396693 6.3966934 c 0,-0.055 -0.045,-0.1 -0.1,-0.1 h -6 -134 -6 c -0.055,0 -0.1,0.045 -0.1,0.1 v 5.9999996 133.999997 6 c 0,0.055 0.045,0.1 0.1,0.1 h 6"
     stroke="#000000"
     stroke-width="0.2"
     id="path58"
     style="fill:none;stroke-linecap:round;stroke-linejoin:round" />
  <path
     d="m 151.18826,133.39669 v 2.9 c 0,0.1 0.1,0 0,0 h -2.8 c -0.1,0 0,0.1 0,0 v -5.8 c 0,-0.1 -0.1,0 0,0 h 2.8 c 0.1,0 0,-0.1 0,0 z"
     stroke="#0000ff"
     stroke-width="0.2"
     id="path60"
     style="fill:none;stroke-linecap:round;stroke-linejoin:round" />
  <path
     d="m 151.18826,121.39669 v 2.9 c 0,0.1 0.1,0 0,0 h -2.8 c -0.1,0 0,0.1 0,0 v -5.8 c 0,-0.1 -0.1,0 0,0 h 2.8 c 0.1,0 0,-0.1 0,0 z"
     stroke="#0000ff"
     stroke-width="0.2"
     id="path62"
     style="fill:none;stroke-linecap:round;stroke-linejoin:round" />
  <path
     d="m 151.18826,109.39669 v 2.9 c 0,0.1 0.1,0 0,0 h -2.8 c -0.1,0 0,0.1 0,0 v -5.8 c 0,-0.1 -0.1,0 0,0 h 2.8 c 0.1,0 0,-0.1 0,0 z"
     stroke="#0000ff"
     stroke-width="0.2"
     id="path64"
     style="fill:none;stroke-linecap:round;stroke-linejoin:round" />
  <path
     d="m 151.18826,97.396693 v 2.899997 c 0,0.1 0.1,0 0,0 h -2.8 c -0.1,0 0,0.1 0,0 v -5.799997 c 0,-0.1 -0.1,0 0,0 h 2.8 c 0.1,0 0,-0.1 0,0 z"
     stroke="#0000ff"
     stroke-width="0.2"
     id="path66"
     style="fill:none;stroke-linecap:round;stroke-linejoin:round" />
  <path
     d="m 151.18826,85.396693 v 2.9 c 0,0.1 0.1,0 0,0 h -2.8 c -0.1,0 0,0.1 0,0 v -5.8 c 0,-0.1 -0.1,0 0,0 h 2.8 c 0.1,0 0,-0.1 0,0 z"
     stroke="#0000ff"
     stroke-width="0.2"
     id="path68"
     style="fill:none;stroke-linecap:round;stroke-linejoin:round" />
  <path
     d="m 151.18826,73.396693 v 2.9 c 0,0.1 0.1,0 0,0 h -2.8 c -0.1,0 0,0.1 0,0 v -5.8 c 0,-0.1 -0.1,0 0,0 h 2.8 c 0.1,0 0,-0.1 0,0 z"
     stroke="#0000ff"
     stroke-width="0.2"
     id="path70"
     style="fill:none;stroke-linecap:round;stroke-linejoin:round" />
  <path
     d="m 151.18826,61.396693 v 2.9 c 0,0.1 0.1,0 0,0 h -2.8 c -0.1,0 0,0.1 0,0 v -5.8 c 0,-0.1 -0.1,0 0,0 h 2.8 c 0.1,0 0,-0.1 0,0 z"
     stroke="#0000ff"
     stroke-width="0.2"
     id="path72"
     style="fill:none;stroke-linecap:round;stroke-linejoin:round" />
  <path
     d="m 151.18826,49.396693 v 2.9 c 0,0.1 0.1,0 0,0 h -2.8 c -0.1,0 0,0.1 0,0 v -5.8 c 0,-0.1 -0.1,0 0,0 h 2.8 c 0.1,0 0,-0.1 0,0 z"
     stroke="#0000ff"
     stroke-width="0.2"
     id="path74"
     style="fill:none;stroke-linecap:round;stroke-linejoin:round" />
  <path
     d="m 151.18826,37.396693 v 2.9 c 0,0.1 0.1,0 0,0 h -2.8 c -0.1,0 0,0.1 0,0 v -5.8 c 0,-0.1 -0.1,0 0,0 h 2.8 c 0.1,0 0,-0.1 0,0 z"
     stroke="#0000ff"
     stroke-width="0.2"
     id="path76"
     style="fill:none;stroke-linecap:round;stroke-linejoin:round" />
  <path
     d="m 151.18826,25.396693 v 2.9 c 0,0.1 0.1,0 0,0 h -2.8 c -0.1,0 0,0.1 0,0 v -5.8 c 0,-0.1 -0.1,0 0,0 h 2.8 c 0.1,0 0,-0.1 0,0 z"
     stroke="#0000ff"
     stroke-width="0.2"
     id="path78"
     style="fill:none;stroke-linecap:round;stroke-linejoin:round" />
  <path
     d="m 135.28826,9.4966934 h 2.9 c 0.1,0 0,-0.1 0,0 v 2.7999996 c 0,0.1 0.1,0 0,0 h -5.8 c -0.1,0 0,0.1 0,0 V 9.4966934 c 0,-0.1 -0.1,0 0,0 z"
     stroke="#0000ff"
     stroke-width="0.2"
     id="path80"
     style="fill:none;stroke-linecap:round;stroke-linejoin:round" />
  <path
     d="m 123.28826,9.4966934 h 2.9 c 0.1,0 0,-0.1 0,0 v 2.7999996 c 0,0.1 0.1,0 0,0 h -5.8 c -0.1,0 0,0.1 0,0 V 9.4966934 c 0,-0.1 -0.1,0 0,0 z"
     stroke="#0000ff"
     stroke-width="0.2"
     id="path82"
     style="fill:none;stroke-linecap:round;stroke-linejoin:round" />
  <path
     d="m 111.28826,9.4966934 h 2.9 c 0.1,0 0,-0.1 0,0 v 2.7999996 c 0,0.1 0.1,0 0,0 h -5.8 c -0.1,0 0,0.1 0,0 V 9.4966934 c 0,-0.1 -0.1,0 0,0 z"
     stroke="#0000ff"
     stroke-width="0.2"
     id="path84"
     style="fill:none;stroke-linecap:round;stroke-linejoin:round" />
  <path
     d="m 99.28826,9.4966934 h 2.9 c 0.1,0 0,-0.1 0,0 v 2.7999996 c 0,0.1 0.1,0 0,0 h -5.8 c -0.1,0 0,0.1 0,0 V 9.4966934 c 0,-0.1 -0.1,0 0,0 z"
     stroke="#0000ff"
     stroke-width="0.2"
     id="path86"
     style="fill:none;stroke-linecap:round;stroke-linejoin:round" />
  <path
     d="m 87.28826,9.4966934 h 2.9 c 0.1,0 0,-0.1 0,0 v 2.7999996 c 0,0.1 0.1,0 0,0 h -5.8 c -0.1,0 0,0.1 0,0 V 9.4966934 c 0,-0.1 -0.1,0 0,0 z"
     stroke="#0000ff"
     stroke-width="0.2"
     id="path88"
     style="fill:none;stroke-linecap:round;stroke-linejoin:round" />
  <path
     d="m 75.28826,9.4966934 h 2.9 c 0.1,0 0,-0.1 0,0 v 2.7999996 c 0,0.1 0.1,0 0,0 h -5.8 c -0.1,0 0,0.1 0,0 V 9.4966934 c 0,-0.1 -0.1,0 0,0 z"
     stroke="#0000ff"
     stroke-width="0.2"
     id="path90"
     style="fill:none;stroke-linecap:round;stroke-linejoin:round" />
  <path
     d="m 63.28826,9.4966934 h 2.9 c 0.1,0 0,-0.1 0,0 v 2.7999996 c 0,0.1 0.1,0 0,0 h -5.8 c -0.1,0 0,0.1 0,0 V 9.4966934 c 0,-0.1 -0.1,0 0,0 z"
     stroke="#0000ff"
     stroke-width="0.2"
     id="path92"
     style="fill:none;stroke-linecap:round;stroke-linejoin:round" />
  <path
     d="m 51.28826,9.4966934 h 2.9 c 0.1,0 0,-0.1 0,0 v 2.7999996 c 0,0.1 0.1,0 0,0 h -5.8 c -0.1,0 0,0.1 0,0 V 9.4966934 c 0,-0.1 -0.1,0 0,0 z"
     stroke="#0000ff"
     stroke-width="0.2"
     id="path94"
     style="fill:none;stroke-linecap:round;stroke-linejoin:round" />
  <path
     d="m 39.28826,9.4966934 h 2.9 c 0.1,0 0,-0.1 0,0 v 2.7999996 c 0,0.1 0.1,0 0,0 h -5.8 c -0.1,0 0,0.1 0,0 V 9.4966934 c 0,-0.1 -0.1,0 0,0 z"
     stroke="#0000ff"
     stroke-width="0.2"
     id="path96"
     style="fill:none;stroke-linecap:round;stroke-linejoin:round" />
  <path
     d="m 27.28826,9.4966934 h 2.9 c 0.1,0 0,-0.1 0,0 v 2.7999996 c 0,0.1 0.1,0 0,0 h -5.8 c -0.1,0 0,0.1 0,0 V 9.4966934 c 0,-0.1 -0.1,0 0,0 z"
     stroke="#0000ff"
     stroke-width="0.2"
     id="path98"
     style="fill:none;stroke-linecap:round;stroke-linejoin:round" />
  <path
     d="m 11.38826,25.396693 v -2.9 c 0,-0.1 -0.1,0 0,0 h 2.8 c 0.1,0 0,-0.1 0,0 v 5.8 c 0,0.1 0.1,0 0,0 h -2.8 c -0.1,0 0,0.1 0,0 z"
     stroke="#0000ff"
     stroke-width="0.2"
     id="path100"
     style="fill:none;stroke-linecap:round;stroke-linejoin:round" />
  <path
     d="m 11.38826,37.396693 v -2.9 c 0,-0.1 -0.1,0 0,0 h 2.8 c 0.1,0 0,-0.1 0,0 v 5.8 c 0,0.1 0.1,0 0,0 h -2.8 c -0.1,0 0,0.1 0,0 z"
     stroke="#0000ff"
     stroke-width="0.2"
     id="path102"
     style="fill:none;stroke-linecap:round;stroke-linejoin:round" />
  <path
     d="m 11.38826,49.396693 v -2.9 c 0,-0.1 -0.1,0 0,0 h 2.8 c 0.1,0 0,-0.1 0,0 v 5.8 c 0,0.1 0.1,0 0,0 h -2.8 c -0.1,0 0,0.1 0,0 z"
     stroke="#0000ff"
     stroke-width="0.2"
     id="path104"
     style="fill:none;stroke-linecap:round;stroke-linejoin:round" />
  <path
     d="m 11.38826,61.396693 v -2.9 c 0,-0.1 -0.1,0 0,0 h 2.8 c 0.1,0 0,-0.1 0,0 v 5.8 c 0,0.1 0.1,0 0,0 h -2.8 c -0.1,0 0,0.1 0,0 z"
     stroke="#0000ff"
     stroke-width="0.2"
     id="path106"
     style="fill:none;stroke-linecap:round;stroke-linejoin:round" />
  <path
     d="m 11.38826,73.396693 v -2.9 c 0,-0.1 -0.1,0 0,0 h 2.8 c 0.1,0 0,-0.1 0,0 v 5.8 c 0,0.1 0.1,0 0,0 h -2.8 c -0.1,0 0,0.1 0,0 z"
     stroke="#0000ff"
     stroke-width="0.2"
     id="path108"
     style="fill:none;stroke-linecap:round;stroke-linejoin:round" />
  <path
     d="m 11.38826,85.396693 v -2.9 c 0,-0.1 -0.1,0 0,0 h 2.8 c 0.1,0 0,-0.1 0,0 v 5.8 c 0,0.1 0.1,0 0,0 h -2.8 c -0.1,0 0,0.1 0,0 z"
     stroke="#0000ff"
     stroke-width="0.2"
     id="path110"
     style="fill:none;stroke-linecap:round;stroke-linejoin:round" />
  <path
     d="m 11.38826,97.396693 v -2.9 c 0,-0.1 -0.1,0 0,0 h 2.8 c 0.1,0 0,-0.1 0,0 v 5.799997 c 0,0.1 0.1,0 0,0 h -2.8 c -0.1,0 0,0.1 0,0 z"
     stroke="#0000ff"
     stroke-width="0.2"
     id="path112"
     style="fill:none;stroke-linecap:round;stroke-linejoin:round" />
  <path
     d="m 11.38826,109.39669 v -2.9 c 0,-0.1 -0.1,0 0,0 h 2.8 c 0.1,0 0,-0.1 0,0 v 5.8 c 0,0.1 0.1,0 0,0 h -2.8 c -0.1,0 0,0.1 0,0 z"
     stroke="#0000ff"
     stroke-width="0.2"
     id="path114"
     style="fill:none;stroke-linecap:round;stroke-linejoin:round" />
  <path
     d="m 11.38826,121.39669 v -2.9 c 0,-0.1 -0.1,0 0,0 h 2.8 c 0.1,0 0,-0.1 0,0 v 5.8 c 0,0.1 0.1,0 0,0 h -2.8 c -0.1,0 0,0.1 0,0 z"
     stroke="#0000ff"
     stroke-width="0.2"
     id="path116"
     style="fill:none;stroke-linecap:round;stroke-linejoin:round" />
  <path
     d="m 11.38826,133.39669 v -2.9 c 0,-0.1 -0.1,0 0,0 h 2.8 c 0.1,0 0,-0.1 0,0 v 5.8 c 0,0.1 0.1,0 0,0 h -2.8 c -0.1,0 0,0.1 0,0 z"
     stroke="#0000ff"
     stroke-width="0.2"
     id="path118"
     style="fill:none;stroke-linecap:round;stroke-linejoin:round" />
</svg>
