<?xml version="1.0" encoding="UTF-8" standalone="no"?>
<!-- Created with Inkscape (http://www.inkscape.org/) -->

<svg
   width="200mm"
   height="200mm"
   viewBox="0 0 200 200"
   version="1.1"
   id="svg5"
   inkscape:version="1.2.2 (732a01da63, 2022-12-09)"
   sodipodi:docname="porte.svg"
   xmlns:inkscape="http://www.inkscape.org/namespaces/inkscape"
   xmlns:sodipodi="http://sodipodi.sourceforge.net/DTD/sodipodi-0.dtd"
   xmlns="http://www.w3.org/2000/svg"
   xmlns:svg="http://www.w3.org/2000/svg">
  <defs
     id="defs736" />
  <sodipodi:namedview
     id="namedview7"
     pagecolor="#ffffff"
     bordercolor="#000000"
     borderopacity="0.25"
     inkscape:showpageshadow="2"
     inkscape:pageopacity="0.0"
     inkscape:pagecheckerboard="0"
     inkscape:deskcolor="#d1d1d1"
     inkscape:document-units="mm"
     showgrid="false"
     inkscape:zoom="1.104894"
     inkscape:cx="295.05093"
     inkscape:cy="418.13966"
     inkscape:window-width="1920"
     inkscape:window-height="1057"
     inkscape:window-x="1272"
     inkscape:window-y="-8"
     inkscape:window-maximized="1"
     inkscape:current-layer="layer1" />
  <g
     inkscape:label="Calque 1"
     inkscape:groupmode="layer"
     id="layer1">
    <text
       xml:space="preserve"
       transform="scale(0.26458333)"
       id="text3692"
       style="font-size:64px;white-space:pre;shape-inside:url(#rect3694);display:inline;fill:none;stroke:#ff0101;stroke-width:0.377953" />
    <text
       xml:space="preserve"
       style="font-size:16.9333px;white-space:pre;inline-size:242.161;display:inline;fill:none;stroke:#ff0101;stroke-width:0.1"
       x="20.319269"
       y="45.379704"
       id="text3700" />
    <text
       xml:space="preserve"
       transform="scale(0.26458333)"
       id="text3760"
       style="font-size:64px;white-space:pre;shape-inside:url(#rect3762);display:inline;fill:none;stroke:#ff0101;stroke-width:0.377953" />
    <text
       xml:space="preserve"
       transform="scale(0.26458333)"
       id="text3175"
       style="fill:none;stroke:#ff0101;stroke-width:0.37795276;font-size:13.3333335px;white-space:pre;shape-inside:url(#rect3177)" />
    <text
       xml:space="preserve"
       transform="scale(0.26458333)"
       id="text3181"
       style="fill:none;stroke:#ff0101;stroke-width:0.37795276;font-size:13.33333333px;white-space:pre;shape-inside:url(#rect3183)" />
    <g
       aria-label="C'est facile... non, de fermer la porte...  MERCI"
       transform="matrix(1.0439015,0,0,1.0439015,-122.89086,3.3197866)"
       id="text3187"
       style="font-size:13.3333px;white-space:pre;shape-inside:url(#rect3189);fill:none;stroke:#ff0101;stroke-width:0.377953">
      <path
         d="m 135.49802,72.099922 q -0.35807,0.15625 -0.65104,0.292968 -0.28645,0.136719 -0.7552,0.286458 -0.39714,0.123697 -0.86589,0.208333 -0.46223,0.09114 -1.02213,0.09114 -1.05468,0 -1.92057,-0.292968 -0.85937,-0.299478 -1.49739,-0.930987 -0.625,-0.618488 -0.97656,-1.569007 -0.35156,-0.957028 -0.35156,-2.220046 0,-1.197914 0.33854,-2.141922 0.33854,-0.944008 0.97656,-1.595048 0.61849,-0.631509 1.49088,-0.963539 0.87891,-0.33203 1.94661,-0.33203 0.78125,0 1.55599,0.188801 0.78125,0.188802 1.73176,0.664061 v 1.529944 h -0.0976 q -0.80078,-0.670571 -1.58854,-0.97656 -0.78776,-0.305989 -1.68619,-0.305989 -0.73568,0 -1.32812,0.240885 -0.58594,0.234374 -1.04818,0.735675 -0.44922,0.48828 -0.70312,1.236976 -0.2474,0.742186 -0.2474,1.718746 0,1.022133 0.27344,1.757808 0.27995,0.735675 0.71614,1.197914 0.45573,0.481769 1.0612,0.716144 0.61198,0.227864 1.28906,0.227864 0.93099,0 1.74479,-0.31901 0.8138,-0.319009 1.52343,-0.957029 h 0.0911 z"
         id="path3243" />
      <path
         d="m 138.53187,62.672863 -0.27995,3.769521 h -0.88541 l -0.27995,-3.769521 z"
         id="path3245" />
      <path
         d="m 146.89123,69.29394 h -5.35806 q 0,0.670571 0.20182,1.171872 0.20182,0.49479 0.55338,0.8138 0.33854,0.312499 0.80078,0.468749 0.46875,0.156249 1.02864,0.156249 0.74219,0 1.49089,-0.292968 0.7552,-0.299478 1.07421,-0.585936 h 0.0651 v 1.334632 q -0.61849,0.260416 -1.26302,0.436197 -0.64453,0.175781 -1.35416,0.175781 -1.8099,0 -2.82552,-0.97656 -1.01562,-0.983071 -1.01562,-2.786452 0,-1.783849 0.97005,-2.832024 0.97656,-1.048174 2.5651,-1.048174 1.47135,0 2.26562,0.859373 0.80078,0.859373 0.80078,2.4414 z m -1.19141,-0.937498 q -0.007,-0.963539 -0.48828,-1.490882 -0.47526,-0.527342 -1.45182,-0.527342 -0.98307,0 -1.569,0.579426 -0.57943,0.579425 -0.65755,1.438798 z"
         id="path3247" />
      <path
         d="m 153.94199,70.706696 q 0,0.996092 -0.82682,1.634111 -0.82031,0.638019 -2.24609,0.638019 -0.80729,0 -1.48437,-0.188801 -0.67057,-0.195312 -1.1263,-0.423176 v -1.373695 h 0.0651 q 0.57943,0.436197 1.28906,0.696613 0.70964,0.253906 1.36068,0.253906 0.80729,0 1.26301,-0.260416 0.45573,-0.260416 0.45573,-0.820311 0,-0.429686 -0.24739,-0.65104 -0.2474,-0.221354 -0.95052,-0.377603 -0.26042,-0.05859 -0.68359,-0.136719 -0.41667,-0.07812 -0.76172,-0.16927 -0.95703,-0.253906 -1.36067,-0.742186 -0.39714,-0.49479 -0.39714,-1.210934 0,-0.449218 0.18229,-0.846352 0.1888,-0.397134 0.56641,-0.709634 0.36458,-0.305988 0.92447,-0.481769 0.56641,-0.182291 1.26302,-0.182291 0.65104,0 1.3151,0.16276 0.67057,0.156249 1.11328,0.384113 v 1.308591 h -0.0651 q -0.46875,-0.345052 -1.13932,-0.579426 -0.67057,-0.240885 -1.3151,-0.240885 -0.67058,0 -1.13281,0.260416 -0.46224,0.253906 -0.46224,0.761717 0,0.449218 0.27995,0.677082 0.27343,0.227864 0.88541,0.371092 0.33854,0.07813 0.75521,0.15625 0.42317,0.07813 0.70312,0.143229 0.85286,0.195312 1.3151,0.670571 0.46224,0.48177 0.46224,1.276038 z"
         id="path3249" />
      <path
         d="m 159.46932,72.737941 q -0.34505,0.09115 -0.75521,0.14974 -0.40364,0.05859 -0.72265,0.05859 -1.11328,0 -1.69271,-0.598957 -0.57942,-0.598956 -0.57942,-1.920568 v -3.867177 h -0.82682 v -1.028644 h 0.82682 V 63.44109 h 1.22395 v 2.089838 h 2.52604 v 1.028644 h -2.52604 v 3.313793 q 0,0.572915 0.0261,0.898435 0.026,0.31901 0.18229,0.598957 0.14323,0.260416 0.39062,0.384114 0.25391,0.117187 0.76823,0.117187 0.29948,0 0.625,-0.08463 0.32552,-0.09115 0.46875,-0.149739 h 0.0651 z"
         id="path3251" />
      <path
         d="m 169.54742,63.857755 h -0.0651 q -0.20183,-0.05859 -0.52735,-0.117187 -0.32552,-0.0651 -0.57291,-0.0651 -0.78776,0 -1.14583,0.351562 -0.35156,0.345051 -0.35156,1.256507 v 0.247395 h 2.20702 v 1.028644 h -2.16796 v 6.243473 h -1.22396 v -6.243473 h -0.82682 v -1.028644 h 0.82682 v -0.240884 q 0,-1.29557 0.64453,-1.985673 0.64453,-0.696612 1.86198,-0.696612 0.41015,0 0.73567,0.03906 0.33203,0.03906 0.60547,0.09115 z"
         id="path3253" />
      <path
         d="m 175.97318,72.803045 h -1.21744 v -0.774737 q -0.16276,0.110677 -0.44271,0.312499 -0.27343,0.195312 -0.53385,0.312499 -0.30599,0.149739 -0.70312,0.247395 -0.39714,0.104167 -0.93099,0.104167 -0.98307,0 -1.66666,-0.65104 -0.6836,-0.65104 -0.6836,-1.660152 0,-0.826821 0.35157,-1.334632 0.35807,-0.514322 1.01562,-0.80729 0.66406,-0.292968 1.59505,-0.397134 0.93098,-0.104167 1.99869,-0.15625 v -0.188802 q 0,-0.416665 -0.14974,-0.690102 -0.14323,-0.273437 -0.41667,-0.429686 -0.26041,-0.14974 -0.62499,-0.201823 -0.36459,-0.05208 -0.76172,-0.05208 -0.48177,0 -1.07422,0.130208 -0.59244,0.123698 -1.22395,0.364582 h -0.0651 v -1.243486 q 0.35808,-0.09766 1.03516,-0.214843 0.67708,-0.117187 1.33463,-0.117187 0.76823,0 1.33463,0.130208 0.57292,0.123697 0.98958,0.429686 0.41016,0.299478 0.625,0.774738 0.21484,0.475259 0.21484,1.178382 z m -1.21744,-1.79036 v -2.024734 q -0.55989,0.03255 -1.32161,0.09766 -0.75521,0.0651 -1.19792,0.188801 -0.52734,0.14974 -0.85286,0.468749 -0.32552,0.312499 -0.32552,0.865883 0,0.624999 0.37761,0.944009 0.3776,0.312499 1.15234,0.312499 0.64453,0 1.17838,-0.247395 0.53385,-0.253906 0.98958,-0.605468 z"
         id="path3255" />
      <path
         d="m 183.70754,72.347317 q -0.61198,0.292968 -1.16536,0.455728 -0.54688,0.16276 -1.16537,0.16276 -0.78775,0 -1.4453,-0.227864 -0.65756,-0.234374 -1.1263,-0.703123 -0.47526,-0.468749 -0.73568,-1.184893 -0.26042,-0.716144 -0.26042,-1.673173 0,-1.783849 0.97656,-2.799472 0.98308,-1.015622 2.59114,-1.015622 0.625,0 1.22396,0.175781 0.60547,0.175781 1.10677,0.429686 v 1.360674 h -0.0651 q -0.55989,-0.436197 -1.15885,-0.670571 -0.59244,-0.234375 -1.15885,-0.234375 -1.04166,0 -1.64713,0.703123 -0.59896,0.696613 -0.59896,2.050776 0,1.315101 0.58594,2.024735 0.59245,0.703123 1.66015,0.703123 0.37109,0 0.75521,-0.09766 0.38411,-0.09766 0.6901,-0.253905 0.26693,-0.136719 0.5013,-0.286458 0.23437,-0.15625 0.37109,-0.266927 h 0.0651 z"
         id="path3257" />
      <path
         d="m 186.59165,64.313483 h -1.38021 v -1.269528 h 1.38021 z m -0.0781,8.489562 h -1.22395 v -7.272117 h 1.22395 z"
         id="path3259" />
      <path
         d="m 190.17236,72.803045 h -1.22395 V 62.672863 h 1.22395 z"
         id="path3261" />
      <path
         d="m 198.68146,69.29394 h -5.35806 q 0,0.670571 0.20182,1.171872 0.20182,0.49479 0.55338,0.8138 0.33854,0.312499 0.80078,0.468749 0.46875,0.156249 1.02865,0.156249 0.74218,0 1.49088,-0.292968 0.7552,-0.299478 1.07421,-0.585936 h 0.0651 v 1.334632 q -0.61849,0.260416 -1.26302,0.436197 -0.64453,0.175781 -1.35416,0.175781 -1.80989,0 -2.82552,-0.97656 -1.01562,-0.983071 -1.01562,-2.786452 0,-1.783849 0.97005,-2.832024 0.97656,-1.048174 2.5651,-1.048174 1.47135,0 2.26562,0.859373 0.80078,0.859373 0.80078,2.4414 z m -1.19141,-0.937498 q -0.007,-0.963539 -0.48828,-1.490882 -0.47526,-0.527342 -1.45182,-0.527342 -0.98307,0 -1.569,0.579426 -0.57943,0.579425 -0.65755,1.438798 z"
         id="path3263" />
      <path
         d="m 202.53561,72.803045 h -1.55598 v -1.855464 h 1.55598 z"
         id="path3265" />
      <path
         d="m 207.38586,72.803045 h -1.55598 v -1.855464 h 1.55598 z"
         id="path3267" />
      <path
         d="m 212.23611,72.803045 h -1.55598 v -1.855464 h 1.55598 z"
         id="path3269" />
      <path
         d="m 225.85587,72.803045 h -1.22396 v -4.140614 q 0,-0.501301 -0.0586,-0.937498 -0.0586,-0.442707 -0.21484,-0.690102 -0.16276,-0.273437 -0.46875,-0.403645 -0.30599,-0.136718 -0.79427,-0.136718 -0.5013,0 -1.04817,0.247395 -0.54688,0.247395 -1.04818,0.631509 v 5.429673 h -1.22395 v -7.272117 h 1.22395 v 0.80729 q 0.57292,-0.475259 1.18489,-0.742186 0.61198,-0.266926 1.25651,-0.266926 1.17838,0 1.79687,0.709634 0.61849,0.709633 0.61849,2.044265 z"
         id="path3271" />
      <path
         d="m 234.41053,69.170242 q 0,1.777339 -0.91145,2.805983 -0.91146,1.028643 -2.4414,1.028643 -1.54297,0 -2.45442,-1.028643 -0.90495,-1.028644 -0.90495,-2.805983 0,-1.777339 0.90495,-2.805982 0.91145,-1.035154 2.45442,-1.035154 1.52994,0 2.4414,1.035154 0.91145,1.028643 0.91145,2.805982 z m -1.26301,0 q 0,-1.412757 -0.55339,-2.096349 -0.55338,-0.690102 -1.53645,-0.690102 -0.99609,0 -1.54948,0.690102 -0.54687,0.683592 -0.54687,2.096349 0,1.367184 0.55338,2.076818 0.55339,0.703123 1.54297,0.703123 0.97656,0 1.52994,-0.696613 0.5599,-0.703123 0.5599,-2.083328 z"
         id="path3273" />
      <path
         d="m 242.38578,72.803045 h -1.22396 v -4.140614 q 0,-0.501301 -0.0586,-0.937498 -0.0586,-0.442707 -0.21484,-0.690102 -0.16276,-0.273437 -0.46875,-0.403645 -0.30599,-0.136718 -0.79427,-0.136718 -0.5013,0 -1.04818,0.247395 -0.54687,0.247395 -1.04817,0.631509 v 5.429673 h -1.22396 v -7.272117 h 1.22396 v 0.80729 q 0.57291,-0.475259 1.18489,-0.742186 0.61198,-0.266926 1.25651,-0.266926 1.17838,0 1.79687,0.709634 0.61849,0.709633 0.61849,2.044265 z"
         id="path3275" />
      <path
         d="m 247.2816,70.947581 -1.83594,4.264312 h -0.95051 l 1.1328,-4.264312 z"
         id="path3277" />
      <path
         d="m 260.1787,72.803045 h -1.22396 v -0.761716 q -0.52734,0.455728 -1.10025,0.709633 -0.57292,0.253906 -1.24349,0.253906 -1.30208,0 -2.07031,-1.002602 -0.76172,-1.002602 -0.76172,-2.779941 0,-0.924477 0.26042,-1.647131 0.26693,-0.722654 0.71614,-1.230466 0.44271,-0.49479 1.02865,-0.755206 0.59244,-0.260416 1.22395,-0.260416 0.57292,0 1.01563,0.123698 0.4427,0.117187 0.93098,0.371092 v -3.151033 h 1.22396 z m -1.22396,-1.79036 v -4.173166 q -0.49479,-0.221354 -0.88541,-0.305989 -0.39063,-0.08464 -0.85286,-0.08464 -1.02865,0 -1.60156,0.716144 -0.57292,0.716144 -0.57292,2.031245 0,1.295569 0.44271,1.972651 0.44271,0.670571 1.41927,0.670571 0.52083,0 1.05468,-0.227864 0.53385,-0.234374 0.99609,-0.598957 z"
         id="path3279" />
      <path
         d="m 268.67478,69.29394 h -5.35806 q 0,0.670571 0.20182,1.171872 0.20183,0.49479 0.55339,0.8138 0.33854,0.312499 0.80078,0.468749 0.46875,0.156249 1.02864,0.156249 0.74219,0 1.49088,-0.292968 0.75521,-0.299478 1.07422,-0.585936 h 0.0651 v 1.334632 q -0.61849,0.260416 -1.26302,0.436197 -0.64452,0.175781 -1.35416,0.175781 -1.80989,0 -2.82551,-0.97656 -1.01562,-0.983071 -1.01562,-2.786452 0,-1.783849 0.97004,-2.832024 0.97657,-1.048174 2.5651,-1.048174 1.47135,0 2.26562,0.859373 0.80078,0.859373 0.80078,2.4414 z m -1.1914,-0.937498 q -0.007,-0.963539 -0.48828,-1.490882 -0.47526,-0.527342 -1.45182,-0.527342 -0.98307,0 -1.56901,0.579426 -0.57942,0.579425 -0.65755,1.438798 z"
         id="path3281" />
      <path
         d="m 131.82616,80.524381 h -0.0651 q -0.20182,-0.05859 -0.52734,-0.117187 -0.32552,-0.0651 -0.57291,-0.0651 -0.78776,0 -1.14583,0.351562 -0.35156,0.345051 -0.35156,1.256507 v 0.247395 h 2.20702 v 1.028644 h -2.16796 v 6.243473 h -1.22396 v -6.243473 h -0.82682 v -1.028644 h 0.82682 v -0.240885 q 0,-1.295569 0.64453,-1.985672 0.64453,-0.696612 1.86198,-0.696612 0.41015,0 0.73567,0.03906 0.33203,0.03906 0.60547,0.09115 z"
         id="path3283" />
      <path
         d="m 138.68812,85.960566 h -5.35806 q 0,0.670571 0.20182,1.171872 0.20183,0.49479 0.55339,0.8138 0.33854,0.312499 0.80078,0.468748 0.46875,0.15625 1.02864,0.15625 0.74219,0 1.49088,-0.292968 0.75521,-0.299478 1.07422,-0.585936 h 0.0651 v 1.334632 q -0.61849,0.260416 -1.26302,0.436197 -0.64453,0.175781 -1.35416,0.175781 -1.80989,0 -2.82551,-0.97656 -1.01563,-0.983071 -1.01563,-2.786452 0,-1.783849 0.97005,-2.832024 0.97656,-1.048174 2.5651,-1.048174 1.47135,0 2.26562,0.859373 0.80078,0.859373 0.80078,2.4414 z m -1.1914,-0.937498 q -0.007,-0.963539 -0.48828,-1.490882 -0.47526,-0.527342 -1.45182,-0.527342 -0.98307,0 -1.56901,0.579426 -0.57942,0.579425 -0.65755,1.438798 z"
         id="path3285" />
      <path
         d="m 145.08133,83.532186 h -0.0651 q -0.27344,-0.0651 -0.53385,-0.09114 -0.25391,-0.03255 -0.60547,-0.03255 -0.5664,0 -1.09375,0.253905 -0.52734,0.247396 -1.01562,0.64453 v 5.162747 h -1.22396 v -7.272117 h 1.22396 v 1.074216 q 0.72917,-0.585936 1.28255,-0.82682 0.55989,-0.247396 1.13932,-0.247396 0.31901,0 0.46224,0.01953 0.14323,0.01302 0.42968,0.05859 z"
         id="path3287" />
      <path
         d="m 156.84563,89.469671 h -1.22396 v -4.140614 q 0,-0.468749 -0.0456,-0.904946 -0.0391,-0.436197 -0.17578,-0.696613 -0.14974,-0.279947 -0.42969,-0.423176 -0.27994,-0.143228 -0.80729,-0.143228 -0.51432,0 -1.02864,0.260416 -0.51432,0.253905 -1.02864,0.65104 0.0195,0.149739 0.0325,0.351561 0.013,0.195312 0.013,0.390624 v 4.654936 h -1.22396 v -4.140614 q 0,-0.48177 -0.0456,-0.911456 -0.0391,-0.436197 -0.17578,-0.696613 -0.14974,-0.279947 -0.42969,-0.416666 -0.27994,-0.143228 -0.80729,-0.143228 -0.5013,0 -1.00911,0.247395 -0.5013,0.247395 -1.0026,0.631509 v 5.429673 h -1.22395 v -7.272117 h 1.22395 v 0.80729 q 0.57292,-0.475259 1.13932,-0.742186 0.57292,-0.266926 1.21745,-0.266926 0.74218,0 1.2565,0.312499 0.52083,0.312499 0.77474,0.865883 0.74219,-0.624998 1.35416,-0.898435 0.61198,-0.279947 1.30859,-0.279947 1.19792,0 1.76432,0.729165 0.57292,0.722654 0.57292,2.024734 z"
         id="path3289" />
      <path
         d="m 165.28962,85.960566 h -5.35806 q 0,0.670571 0.20182,1.171872 0.20182,0.49479 0.55338,0.8138 0.33854,0.312499 0.80078,0.468748 0.46875,0.15625 1.02865,0.15625 0.74218,0 1.49088,-0.292968 0.7552,-0.299478 1.07421,-0.585936 h 0.0651 v 1.334632 q -0.61849,0.260416 -1.26302,0.436197 -0.64453,0.175781 -1.35416,0.175781 -1.80989,0 -2.82552,-0.97656 -1.01562,-0.983071 -1.01562,-2.786452 0,-1.783849 0.97005,-2.832024 0.97656,-1.048174 2.5651,-1.048174 1.47135,0 2.26562,0.859373 0.80078,0.859373 0.80078,2.4414 z m -1.19141,-0.937498 q -0.007,-0.963539 -0.48828,-1.490882 -0.47526,-0.527342 -1.45182,-0.527342 -0.98307,0 -1.569,0.579426 -0.57943,0.579425 -0.65755,1.438798 z"
         id="path3291" />
      <path
         d="m 171.68283,83.532186 h -0.0651 q -0.27344,-0.0651 -0.53386,-0.09114 -0.2539,-0.03255 -0.60546,-0.03255 -0.56641,0 -1.09375,0.253905 -0.52734,0.247396 -1.01562,0.64453 v 5.162747 h -1.22396 v -7.272117 h 1.22396 v 1.074216 q 0.72916,-0.585936 1.28255,-0.82682 0.55989,-0.247396 1.13932,-0.247396 0.31901,0 0.46224,0.01953 0.14322,0.01302 0.42968,0.05859 z"
         id="path3293" />
      <path
         d="m 178.75963,89.469671 h -1.22395 V 79.339489 h 1.22395 z"
         id="path3295" />
      <path
         d="m 186.83253,89.469671 h -1.21744 v -0.774737 q -0.16276,0.110677 -0.44271,0.312499 -0.27344,0.195312 -0.53385,0.312499 -0.30599,0.149739 -0.70313,0.247395 -0.39713,0.104167 -0.93098,0.104167 -0.98307,0 -1.66667,-0.65104 -0.68359,-0.65104 -0.68359,-1.660152 0,-0.826821 0.35156,-1.334632 0.35808,-0.514322 1.01563,-0.80729 0.66406,-0.292968 1.59505,-0.397134 0.93098,-0.104167 1.99869,-0.15625 v -0.188802 q 0,-0.416665 -0.14974,-0.690102 -0.14323,-0.273437 -0.41667,-0.429686 -0.26041,-0.14974 -0.625,-0.201823 -0.36458,-0.05208 -0.76171,-0.05208 -0.48177,0 -1.07422,0.130208 -0.59244,0.123698 -1.22395,0.364582 h -0.0651 v -1.243486 q 0.35807,-0.09766 1.03516,-0.214843 0.67708,-0.117188 1.33463,-0.117188 0.76823,0 1.33463,0.130208 0.57292,0.123698 0.98958,0.429687 0.41016,0.299478 0.625,0.774738 0.21484,0.475259 0.21484,1.178382 z m -1.21744,-1.79036 v -2.024734 q -0.5599,0.03255 -1.32161,0.09766 -0.75521,0.0651 -1.19792,0.188801 -0.52734,0.14974 -0.85286,0.468749 -0.32552,0.312499 -0.32552,0.865883 0,0.624999 0.3776,0.944008 0.37761,0.3125 1.15234,0.3125 0.64453,0 1.17839,-0.247396 0.53385,-0.253905 0.98958,-0.605467 z"
         id="path3297" />
      <path
         d="m 200.27651,85.745722 q 0,0.885415 -0.2539,1.62109 -0.25391,0.729165 -0.71615,1.236976 -0.42969,0.48177 -1.01562,0.748696 -0.57943,0.260416 -1.23047,0.260416 -0.5664,0 -1.02864,-0.123697 -0.45573,-0.123698 -0.93099,-0.384114 v 3.046867 h -1.22395 v -9.954402 h 1.22395 v 0.761717 q 0.48828,-0.410155 1.09375,-0.683592 0.61198,-0.279947 1.30208,-0.279947 1.3151,0 2.04427,0.996091 0.73567,0.989581 0.73567,2.753899 z m -1.26302,0.03255 q 0,-1.3151 -0.44921,-1.96614 -0.44922,-0.65104 -1.38021,-0.65104 -0.52734,0 -1.06119,0.227864 -0.53386,0.227864 -1.02214,0.598956 v 4.121084 q 0.52083,0.234374 0.89193,0.319009 0.3776,0.08464 0.85286,0.08464 1.02213,0 1.59505,-0.690103 0.57291,-0.690102 0.57291,-2.044266 z"
         id="path3299" />
      <path
         d="m 208.38195,85.836868 q 0,1.777339 -0.91145,2.805983 -0.91146,1.028643 -2.4414,1.028643 -1.54297,0 -2.45442,-1.028643 -0.90495,-1.028644 -0.90495,-2.805983 0,-1.777339 0.90495,-2.805982 0.91145,-1.035154 2.45442,-1.035154 1.52994,0 2.4414,1.035154 0.91145,1.028643 0.91145,2.805982 z m -1.26301,0 q 0,-1.412757 -0.55339,-2.096349 -0.55338,-0.690102 -1.53645,-0.690102 -0.99609,0 -1.54948,0.690102 -0.54687,0.683592 -0.54687,2.096349 0,1.367184 0.55338,2.076818 0.55339,0.703123 1.54297,0.703123 0.97656,0 1.52994,-0.696613 0.5599,-0.703123 0.5599,-2.083328 z"
         id="path3301" />
      <path
         d="m 214.81423,83.532186 h -0.0651 q -0.27344,-0.0651 -0.53385,-0.09114 -0.25391,-0.03255 -0.60547,-0.03255 -0.56641,0 -1.09375,0.253905 -0.52734,0.247396 -1.01562,0.64453 v 5.162747 h -1.22396 v -7.272117 h 1.22396 v 1.074216 q 0.72916,-0.585936 1.28255,-0.82682 0.55989,-0.247396 1.13932,-0.247396 0.31901,0 0.46224,0.01953 0.14323,0.01302 0.42968,0.05859 z"
         id="path3303" />
      <path
         d="m 219.7426,89.404567 q -0.34505,0.09115 -0.7552,0.14974 -0.40365,0.05859 -0.72266,0.05859 -1.11328,0 -1.6927,-0.598957 -0.57943,-0.598957 -0.57943,-1.920568 v -3.867177 h -0.82682 v -1.028644 h 0.82682 v -2.089838 h 1.22396 v 2.089838 h 2.52603 v 1.028644 h -2.52603 v 3.313793 q 0,0.572915 0.026,0.898435 0.026,0.31901 0.18229,0.598957 0.14323,0.260416 0.39062,0.384114 0.25391,0.117187 0.76823,0.117187 0.29948,0 0.625,-0.08464 0.32552,-0.09115 0.46875,-0.149739 h 0.0651 z"
         id="path3305" />
      <path
         d="m 227.30769,85.960566 h -5.35806 q 0,0.670571 0.20182,1.171872 0.20182,0.49479 0.55338,0.8138 0.33854,0.312499 0.80078,0.468748 0.46875,0.15625 1.02864,0.15625 0.74219,0 1.49089,-0.292968 0.7552,-0.299478 1.07421,-0.585936 h 0.0651 v 1.334632 q -0.61849,0.260416 -1.26302,0.436197 -0.64453,0.175781 -1.35416,0.175781 -1.8099,0 -2.82552,-0.97656 -1.01562,-0.983071 -1.01562,-2.786452 0,-1.783849 0.97005,-2.832024 0.97656,-1.048174 2.5651,-1.048174 1.47135,0 2.26562,0.859373 0.80078,0.859373 0.80078,2.4414 z m -1.19141,-0.937498 q -0.007,-0.963539 -0.48828,-1.490882 -0.47526,-0.527342 -1.45182,-0.527342 -0.98307,0 -1.569,0.579426 -0.57943,0.579425 -0.65755,1.438798 z"
         id="path3307" />
      <path
         d="m 231.16185,89.469671 h -1.55599 v -1.855464 h 1.55599 z"
         id="path3309" />
      <path
         d="m 236.01209,89.469671 h -1.55598 v -1.855464 h 1.55598 z"
         id="path3311" />
      <path
         d="m 240.86234,89.469671 h -1.55598 v -1.855464 h 1.55598 z"
         id="path3313" />
      <path
         d="m 261.81932,89.469671 h -1.28906 v -8.352843 l -2.6953,5.683579 h -0.76823 l -2.67577,-5.683579 v 8.352843 h -1.20443 v -9.693986 h 1.75781 l 2.58463,5.397122 2.49999,-5.397122 h 1.79036 z"
         id="path3315" />
      <path
         d="m 270.81018,89.469671 h -6.3867 v -9.693986 h 6.3867 v 1.145831 h -5.09764 v 2.656243 h 5.09764 v 1.145831 h -5.09764 v 3.600251 h 5.09764 z"
         id="path3317" />
      <path
         d="m 280.87526,89.469671 h -1.67317 l -3.24218,-3.854157 h -1.8164 v 3.854157 h -1.28906 v -9.693986 h 2.71484 q 0.8789,0 1.46484,0.117188 0.58593,0.110676 1.05468,0.403644 0.52734,0.332031 0.82031,0.839842 0.29948,0.501301 0.29948,1.276039 0,1.048174 -0.52734,1.757808 -0.52735,0.703123 -1.45182,1.061195 z m -3.01431,-6.966128 q 0,-0.416666 -0.14974,-0.735675 -0.14323,-0.32552 -0.48177,-0.546874 -0.27995,-0.188801 -0.66406,-0.260416 -0.38412,-0.07813 -0.90495,-0.07813 h -1.51692 v 3.658845 h 1.30208 q 0.61198,0 1.0677,-0.104166 0.45573,-0.110677 0.77474,-0.403645 0.29297,-0.273437 0.42969,-0.624998 0.14323,-0.358072 0.14323,-0.904946 z"
         id="path3319" />
      <path
         d="m 289.61222,88.766548 q -0.35807,0.15625 -0.65104,0.292968 -0.28646,0.136719 -0.75521,0.286458 -0.39713,0.123697 -0.86588,0.208333 -0.46224,0.09115 -1.02213,0.09115 -1.05469,0 -1.92057,-0.292968 -0.85937,-0.299478 -1.49739,-0.930987 -0.625,-0.618488 -0.97656,-1.569007 -0.35156,-0.957028 -0.35156,-2.220046 0,-1.197914 0.33854,-2.141922 0.33854,-0.944008 0.97656,-1.595048 0.61849,-0.631509 1.49088,-0.963539 0.8789,-0.33203 1.94661,-0.33203 0.78125,0 1.55598,0.188801 0.78125,0.188802 1.73177,0.664061 v 1.529944 h -0.0976 q -0.80078,-0.670571 -1.58854,-0.97656 -0.78776,-0.305989 -1.6862,-0.305989 -0.73567,0 -1.32812,0.240885 -0.58593,0.234374 -1.04817,0.735675 -0.44922,0.48828 -0.70313,1.236976 -0.24739,0.742186 -0.24739,1.718746 0,1.022133 0.27344,1.757808 0.27994,0.735675 0.71614,1.197914 0.45573,0.481769 1.0612,0.716144 0.61197,0.227864 1.28905,0.227864 0.93099,0 1.74479,-0.31901 0.8138,-0.31901 1.52344,-0.957029 h 0.0911 z"
         id="path3321" />
      <path
         d="m 294.8531,89.469671 h -3.82812 v -0.98958 h 1.26953 v -7.714825 h -1.26953 v -0.989581 h 3.82812 v 0.989581 h -1.26953 v 7.714825 h 1.26953 z"
         id="path3323" />
    </g>
  </g>
</svg>
