<?xml version="1.0" encoding="UTF-8" standalone="no"?>
<svg
   width="200mm"
   height="200mm"
   viewBox="0 0 200 200.00001"
   version="1.1"
   id="svg129"
   sodipodi:docname="wall4.svg"
   inkscape:version="1.2.2 (732a01da63, 2022-12-09)"
   xmlns:inkscape="http://www.inkscape.org/namespaces/inkscape"
   xmlns:sodipodi="http://sodipodi.sourceforge.net/DTD/sodipodi-0.dtd"
   xmlns="http://www.w3.org/2000/svg"
   xmlns:svg="http://www.w3.org/2000/svg"
   xmlns:rdf="http://www.w3.org/1999/02/22-rdf-syntax-ns#"
   xmlns:cc="http://creativecommons.org/ns#"
   xmlns:dc="http://purl.org/dc/elements/1.1/">
  <defs
     id="defs133" />
  <sodipodi:namedview
     id="namedview131"
     pagecolor="#ffffff"
     bordercolor="#000000"
     borderopacity="0.25"
     inkscape:showpageshadow="2"
     inkscape:pageopacity="0.0"
     inkscape:pagecheckerboard="0"
     inkscape:deskcolor="#d1d1d1"
     inkscape:document-units="mm"
     showgrid="false"
     inkscape:zoom="0.68691413"
     inkscape:cx="428.0011"
     inkscape:cy="790.49182"
     inkscape:window-width="1920"
     inkscape:window-height="1057"
     inkscape:window-x="-8"
     inkscape:window-y="-8"
     inkscape:window-maximized="1"
     inkscape:current-layer="svg129" />
  <!--
BasedBox - Fully closed box on a base


This box is more of a building block than a finished item.
Use a vector graphics program (like Inkscape) to add holes or adjust the base
plate. The width of the "brim" can also be adjusted with the **edge_width**
 parameter in the **Finger Joints Settings**.
 
See ClosedBox for variant without a base.



Created with Boxes.py (https://festi.info/boxes.py)
Creation date: 2023-04-22 16:20:13
Command line (remove spaces between dashes): boxes BasedBox - -thickness=2
Url: http://www.festi.info/boxes.py/BasedBox?FingerJoint_angle=90.0&FingerJoint_style=rectangular&FingerJoint_surroundingspaces=2.0&FingerJoint_bottom_lip=0.0&FingerJoint_edge_width=1.0&FingerJoint_extra_length=0.0&FingerJoint_finger=2.0&FingerJoint_play=0.0&FingerJoint_space=2.0&FingerJoint_width=1.0&x=100&y=100&h=100&outside=0&outside=1&thickness=2&format=svg&tabs=0.0&qr_code=0&debug=0&labels=0&labels=1&reference=100&inner_corners=loop&burn=0.1&language=fr&render=1
Url short: http://www.festi.info/boxes.py/BasedBox?thickness=2
SettingsUrl: http://www.festi.info/boxes.py/BasedBox?FingerJoint_angle=90.0&FingerJoint_style=rectangular&FingerJoint_surroundingspaces=2.0&FingerJoint_bottom_lip=0.0&FingerJoint_edge_width=1.0&FingerJoint_extra_length=0.0&FingerJoint_finger=2.0&FingerJoint_play=0.0&FingerJoint_space=2.0&FingerJoint_width=1.0&x=100&y=100&h=100&outside=0&outside=1&thickness=2&format=svg&tabs=0.0&qr_code=0&debug=0&labels=0&labels=1&reference=100&inner_corners=loop&burn=0.1&language=fr
SettingsUrl short: http://www.festi.info/boxes.py/BasedBox?thickness=2
-->
  <title
     id="title2">BasedBox</title>
  <metadata
     id="metadata4">
    <rdf:RDF>
      <cc:Work>
        <dc:title>BasedBox</dc:title>
        <dc:date>2023-04-22 16:20:13</dc:date>
        <dc:source>http://www.festi.info/boxes.py/BasedBox?FingerJoint_angle=90.0&amp;FingerJoint_style=rectangular&amp;FingerJoint_surroundingspaces=2.0&amp;FingerJoint_bottom_lip=0.0&amp;FingerJoint_edge_width=1.0&amp;FingerJoint_extra_length=0.0&amp;FingerJoint_finger=2.0&amp;FingerJoint_play=0.0&amp;FingerJoint_space=2.0&amp;FingerJoint_width=1.0&amp;x=100&amp;y=100&amp;h=100&amp;outside=0&amp;outside=1&amp;thickness=2&amp;format=svg&amp;tabs=0.0&amp;qr_code=0&amp;debug=0&amp;labels=0&amp;labels=1&amp;reference=100&amp;inner_corners=loop&amp;burn=0.1&amp;language=fr&amp;render=1</dc:source>
        <dc:source>http://www.festi.info/boxes.py/BasedBox?thickness=2</dc:source>
        <dc:description>Fully closed box on a base

This box is more of a building block than a finished item.
Use a vector graphics program (like Inkscape) to add holes or adjust the base
plate. The width of the &quot;brim&quot; can also be adjusted with the **edge_width**
 parameter in the **Finger Joints Settings**.
 
See ClosedBox for variant without a base.


Created with Boxes.py (https://festi.info/boxes.py)
Command line: boxes BasedBox --FingerJoint_angle=90.0 --FingerJoint_style=rectangular --FingerJoint_surroundingspaces=2.0 --FingerJoint_bottom_lip=0.0 --FingerJoint_edge_width=1.0 --FingerJoint_extra_length=0.0 --FingerJoint_finger=2.0 --FingerJoint_play=0.0 --FingerJoint_space=2.0 --FingerJoint_width=1.0 --x=100 --y=100 --h=100 --outside=0 --outside=1 --thickness=2 --format=svg --tabs=0.0 --qr_code=0 --debug=0 --labels=0 --labels=1 --reference=100 --inner_corners=loop --burn=0.1
Command line short: boxes BasedBox --thickness=2
Url: http://www.festi.info/boxes.py/BasedBox?FingerJoint_angle=90.0&amp;FingerJoint_style=rectangular&amp;FingerJoint_surroundingspaces=2.0&amp;FingerJoint_bottom_lip=0.0&amp;FingerJoint_edge_width=1.0&amp;FingerJoint_extra_length=0.0&amp;FingerJoint_finger=2.0&amp;FingerJoint_play=0.0&amp;FingerJoint_space=2.0&amp;FingerJoint_width=1.0&amp;x=100&amp;y=100&amp;h=100&amp;outside=0&amp;outside=1&amp;thickness=2&amp;format=svg&amp;tabs=0.0&amp;qr_code=0&amp;debug=0&amp;labels=0&amp;labels=1&amp;reference=100&amp;inner_corners=loop&amp;burn=0.1&amp;language=fr&amp;render=1
Url short: http://www.festi.info/boxes.py/BasedBox?thickness=2
SettingsUrl: http://www.festi.info/boxes.py/BasedBox?FingerJoint_angle=90.0&amp;FingerJoint_style=rectangular&amp;FingerJoint_surroundingspaces=2.0&amp;FingerJoint_bottom_lip=0.0&amp;FingerJoint_edge_width=1.0&amp;FingerJoint_extra_length=0.0&amp;FingerJoint_finger=2.0&amp;FingerJoint_play=0.0&amp;FingerJoint_space=2.0&amp;FingerJoint_width=1.0&amp;x=100&amp;y=100&amp;h=100&amp;outside=0&amp;outside=1&amp;thickness=2&amp;format=svg&amp;tabs=0.0&amp;qr_code=0&amp;debug=0&amp;labels=0&amp;labels=1&amp;reference=100&amp;inner_corners=loop&amp;burn=0.1&amp;language=fr
SettingsUrl short: http://www.festi.info/boxes.py/BasedBox?thickness=2
</dc:description>
      </cc:Work>
    </rdf:RDF>
  </metadata>
  <path
     d="m 5.365341,195.2967 h 5.9 c 0.1,0 0,-0.1 0,0 v 1.9 c 0,0.055 0.045,0.1 0.1,0.1 h 4 c 0.055,0 0.1,-0.045 0.1,-0.1 v -1.9 c 0,-0.1 -0.1,0 0,0 h 3.8 c 0.1,0 0,-0.1 0,0 v 1.9 c 0,0.055 0.045,0.1 0.1,0.1 h 4 c 0.055,0 0.1,-0.045 0.1,-0.1 v -1.9 c 0,-0.1 -0.1,0 0,0 h 3.8 c 0.1,0 0,-0.1 0,0 v 1.9 c 0,0.055 0.045,0.1 0.1,0.1 h 4 c 0.055,0 0.1,-0.045 0.1,-0.1 v -1.9 c 0,-0.1 -0.1,0 0,0 h 3.8 c 0.1,0 0,-0.1 0,0 v 1.9 c 0,0.055 0.045,0.1 0.1,0.1 h 4 c 0.055,0 0.1,-0.045 0.1,-0.1 v -1.9 c 0,-0.1 -0.1,0 0,0 h 3.8 c 0.1,0 0,-0.1 0,0 v 1.9 c 0,0.055 0.045,0.1 0.1,0.1 h 4 c 0.055,0 0.1,-0.045 0.1,-0.1 v -1.9 c 0,-0.1 -0.1,0 0,0 h 3.8 c 0.1,0 0,-0.1 0,0 v 1.9 c 0,0.055 0.045,0.1 0.1,0.1 h 4 c 0.055,0 0.1,-0.045 0.1,-0.1 v -1.9 c 0,-0.1 -0.1,0 0,0 h 3.8 c 0.1,0 0,-0.1 0,0 v 1.9 c 0,0.055 0.045,0.1 0.1,0.1 h 4 c 0.055,0 0.1,-0.045 0.1,-0.1 v -1.9 c 0,-0.1 -0.1,0 0,0 h 3.8 c 0.1,0 0,-0.1 0,0 v 1.9 c 0,0.055 0.045,0.1 0.1,0.1 h 4 c 0.055,0 0.1,-0.045 0.1,-0.1 v -1.9 c 0,-0.1 -0.1,0 0,0 h 3.8 c 0.1,0 0,-0.1 0,0 v 1.9 c 0,0.055 0.045,0.1 0.1,0.1 h 4 c 0.055,0 0.1,-0.045 0.1,-0.1 v -1.9 c 0,-0.1 -0.1,0 0,0 h 3.8 c 0.1,0 0,-0.1 0,0 v 1.9 c 0,0.055 0.045,0.1 0.1,0.1 h 4 c 0.055,0 0.1,-0.045 0.1,-0.1 v -1.9 c 0,-0.1 -0.1,0 0,0 h 3.8 c 0.1,0 0,-0.1 0,0 v 1.9 c 0,0.055 0.045,0.1 0.1,0.1 h 4 c 0.055,0 0.1,-0.045 0.1,-0.1 v -1.9 c 0,-0.1 -0.1,0 0,0 h 5.899999 c 0.055,0 0.1,-0.045 0.1,-0.1 v -5.9 c 0,-0.1 -0.1,0 0,0 h 1.9 c 0.055,0 0.1,-0.045 0.1,-0.1 v -4 c 0,-0.055 -0.045,-0.1 -0.1,-0.1 h -1.9 c -0.1,0 0,0.1 0,0 v -3.8 c 0,-0.1 -0.1,0 0,0 h 1.9 c 0.055,0 0.1,-0.045 0.1,-0.1 v -4 c 0,-0.055 -0.045,-0.1 -0.1,-0.1 h -1.9 c -0.1,0 0,0.1 0,0 v -3.8 c 0,-0.1 -0.1,0 0,0 h 1.9 c 0.055,0 0.1,-0.045 0.1,-0.1 v -4 c 0,-0.055 -0.045,-0.1 -0.1,-0.1 h -1.9 c -0.1,0 0,0.1 0,0 v -3.8 c 0,-0.1 -0.1,0 0,0 h 1.9 c 0.055,0 0.1,-0.045 0.1,-0.1 v -4 c 0,-0.055 -0.045,-0.1 -0.1,-0.1 h -1.9 c -0.1,0 0,0.1 0,0 v -3.8 c 0,-0.1 -0.1,0 0,0 h 1.9 c 0.055,0 0.1,-0.045 0.1,-0.1 v -4 c 0,-0.055 -0.045,-0.1 -0.1,-0.1 h -1.9 c -0.1,0 0,0.1 0,0 v -3.8 c 0,-0.1 -0.1,0 0,0 h 1.9 c 0.055,0 0.1,-0.045 0.1,-0.1 v -4 c 0,-0.055 -0.045,-0.1 -0.1,-0.1 h -1.9 c -0.1,0 0,0.1 0,0 v -3.8 c 0,-0.1 -0.1,0 0,0 h 1.9 c 0.055,0 0.1,-0.045 0.1,-0.1 v -4 c 0,-0.055 -0.045,-0.1 -0.1,-0.1 h -1.9 c -0.1,0 0,0.1 0,0 v -3.8 c 0,-0.1 -0.1,0 0,0 h 1.9 c 0.055,0 0.1,-0.045 0.1,-0.1 v -4 c 0,-0.055 -0.045,-0.1 -0.1,-0.1 h -1.9 c -0.1,0 0,0.1 0,0 v -3.8 c 0,-0.1 -0.1,0 0,0 h 1.9 c 0.055,0 0.1,-0.045 0.1,-0.1 v -4 c 0,-0.055 -0.045,-0.1 -0.1,-0.1 h -1.9 c -0.1,0 0,0.1 0,0 v -3.8 c 0,-0.1 -0.1,0 0,0 h 1.9 c 0.055,0 0.1,-0.045 0.1,-0.1 v -4 c 0,-0.055 -0.045,-0.1 -0.1,-0.1 h -1.9 c -0.1,0 0,0.1 0,0 v -3.8 c 0,-0.1 -0.1,0 0,0 h 1.9 c 0.055,0 0.1,-0.045 0.1,-0.1 v -4.00001 c 0,-0.055 -0.045,-0.1 -0.1,-0.1 h -1.9 c -0.1,0 0,0.1 0,0 v -5.899996 -2 c 0,-0.055 -0.045,-0.1 -0.1,-0.1 h -5.999999 c -0.055,0 -0.1,0.045 -0.1,0.1 v 1.9 c 0,0.1 0.1,0 0,0 h -3.8 c -0.1,0 0,0.1 0,0 v -1.9 c 0,-0.055 -0.045,-0.1 -0.1,-0.1 h -4 c -0.055,0 -0.1,0.045 -0.1,0.1 v 1.9 c 0,0.1 0.1,0 0,0 h -3.8 c -0.1,0 0,0.1 0,0 v -1.9 c 0,-0.055 -0.045,-0.1 -0.1,-0.1 h -4 c -0.055,0 -0.1,0.045 -0.1,0.1 v 1.9 c 0,0.1 0.1,0 0,0 h -3.8 c -0.1,0 0,0.1 0,0 v -1.9 c 0,-0.055 -0.045,-0.1 -0.1,-0.1 h -4 c -0.055,0 -0.1,0.045 -0.1,0.1 v 1.9 c 0,0.1 0.1,0 0,0 h -3.8 c -0.1,0 0,0.1 0,0 v -1.9 c 0,-0.055 -0.045,-0.1 -0.1,-0.1 h -4 c -0.055,0 -0.1,0.045 -0.1,0.1 v 1.9 c 0,0.1 0.1,0 0,0 h -3.8 c -0.1,0 0,0.1 0,0 v -1.9 c 0,-0.055 -0.045,-0.1 -0.1,-0.1 h -4 c -0.055,0 -0.1,0.045 -0.1,0.1 v 1.9 c 0,0.1 0.1,0 0,0 h -3.8 c -0.1,0 0,0.1 0,0 v -1.9 c 0,-0.055 -0.045,-0.1 -0.1,-0.1 h -4 c -0.055,0 -0.1,0.045 -0.1,0.1 v 1.9 c 0,0.1 0.1,0 0,0 h -3.8 c -0.1,0 0,0.1 0,0 v -1.9 c 0,-0.055 -0.045,-0.1 -0.1,-0.1 h -4 c -0.055,0 -0.1,0.045 -0.1,0.1 v 1.9 c 0,0.1 0.1,0 0,0 h -3.8 c -0.1,0 0,0.1 0,0 v -1.9 c 0,-0.055 -0.045,-0.1 -0.1,-0.1 h -4 c -0.055,0 -0.1,0.045 -0.1,0.1 v 1.9 c 0,0.1 0.1,0 0,0 h -3.8 c -0.1,0 0,0.1 0,0 v -1.9 c 0,-0.055 -0.045,-0.1 -0.1,-0.1 h -4 c -0.055,0 -0.1,0.045 -0.1,0.1 v 1.9 c 0,0.1 0.1,0 0,0 h -3.8 c -0.1,0 0,0.1 0,0 v -1.9 c 0,-0.055 -0.045,-0.1 -0.1,-0.1 h -4 c -0.055,0 -0.1,0.045 -0.1,0.1 v 1.9 c 0,0.1 0.1,0 0,0 h -3.8 c -0.1,0 0,0.1 0,0 v -1.9 c 0,-0.055 -0.045,-0.1 -0.1,-0.1 h -6 c -0.055,0 -0.1,0.045 -0.1,0.1 v 2 5.899996 c 0,0.1 0.1,0 0,0 h -1.9 c -0.055,0 -0.1,0.045 -0.1,0.1 v 4.00001 c 0,0.055 0.045,0.1 0.1,0.1 h 1.9 c 0.1,0 0,-0.1 0,0 v 3.8 c 0,0.1 0.1,0 0,0 h -1.9 c -0.055,0 -0.1,0.045 -0.1,0.1 v 4 c 0,0.055 0.045,0.1 0.1,0.1 h 1.9 c 0.1,0 0,-0.1 0,0 v 3.8 c 0,0.1 0.1,0 0,0 h -1.9 c -0.055,0 -0.1,0.045 -0.1,0.1 v 4 c 0,0.055 0.045,0.1 0.1,0.1 h 1.9 c 0.1,0 0,-0.1 0,0 v 3.8 c 0,0.1 0.1,0 0,0 h -1.9 c -0.055,0 -0.1,0.045 -0.1,0.1 v 4 c 0,0.055 0.045,0.1 0.1,0.1 h 1.9 c 0.1,0 0,-0.1 0,0 v 3.8 c 0,0.1 0.1,0 0,0 h -1.9 c -0.055,0 -0.1,0.045 -0.1,0.1 v 4 c 0,0.055 0.045,0.1 0.1,0.1 h 1.9 c 0.1,0 0,-0.1 0,0 v 3.8 c 0,0.1 0.1,0 0,0 h -1.9 c -0.055,0 -0.1,0.045 -0.1,0.1 v 4 c 0,0.055 0.045,0.1 0.1,0.1 h 1.9 c 0.1,0 0,-0.1 0,0 v 3.8 c 0,0.1 0.1,0 0,0 h -1.9 c -0.055,0 -0.1,0.045 -0.1,0.1 v 4 c 0,0.055 0.045,0.1 0.1,0.1 h 1.9 c 0.1,0 0,-0.1 0,0 v 3.8 c 0,0.1 0.1,0 0,0 h -1.9 c -0.055,0 -0.1,0.045 -0.1,0.1 v 4 c 0,0.055 0.045,0.1 0.1,0.1 h 1.9 c 0.1,0 0,-0.1 0,0 v 3.8 c 0,0.1 0.1,0 0,0 h -1.9 c -0.055,0 -0.1,0.045 -0.1,0.1 v 4 c 0,0.055 0.045,0.1 0.1,0.1 h 1.9 c 0.1,0 0,-0.1 0,0 v 3.8 c 0,0.1 0.1,0 0,0 h -1.9 c -0.055,0 -0.1,0.045 -0.1,0.1 v 4 c 0,0.055 0.045,0.1 0.1,0.1 h 1.9 c 0.1,0 0,-0.1 0,0 v 3.8 c 0,0.1 0.1,0 0,0 h -1.9 c -0.055,0 -0.1,0.045 -0.1,0.1 v 4 c 0,0.055 0.045,0.1 0.1,0.1 h 1.9 c 0.1,0 0,-0.1 0,0 v 5.9 c 0,0.055 0.045,0.1 0.1,0.1"
     stroke="#000000"
     stroke-width="0.2"
     id="path23"
     style="fill:none;stroke-linecap:round;stroke-linejoin:round" />
</svg>
